<svg width="484" height="350" viewBox="0 0 484 350" fill="none" xmlns="http://www.w3.org/2000/svg">
<circle cx="172.124" cy="116.602" r="62.2165" fill="#9C69FF"/>
<g filter="url(#filter0_bddii_4518_66611)">
<circle cx="317.322" cy="191.096" r="111.903" fill="url(#paint0_linear_4518_66611)" shape-rendering="crispEdges"/>
</g>
<mask id="mask0_4518_66611" style="mask-type:alpha" maskUnits="userSpaceOnUse" x="204" y="77" width="225" height="225">
<circle cx="316.544" cy="189.541" r="111.903" fill="url(#paint1_linear_4518_66611)"/>
</mask>
<g mask="url(#mask0_4518_66611)">
<g filter="url(#filter1_bd_4518_66611)">
<g filter="url(#filter2_b_4518_66611)">
<rect x="245.824" y="267.454" width="32.4483" height="39.7855" rx="1.78614" fill="url(#paint2_linear_4518_66611)" fill-opacity="0.7"/>
<rect x="245.824" y="267.454" width="32.4483" height="39.7855" rx="1.78614" stroke="white" stroke-width="0.489072"/>
</g>
<rect x="285.983" y="235.983" width="31.5522" height="71.2563" rx="1.25171" fill="#9C69FF"/>
<rect x="366.499" y="156.206" width="31.5519" height="151.033" rx="1.25171" fill="#9C6AFF"/>
<g filter="url(#filter3_bd_4518_66611)">
<rect x="325.791" y="197.589" width="32.448" height="109.649" rx="1.78614" fill="url(#paint3_linear_4518_66611)" fill-opacity="0.7" shape-rendering="crispEdges"/>
<rect x="325.791" y="197.589" width="32.448" height="109.649" rx="1.78614" stroke="white" stroke-width="0.489072" shape-rendering="crispEdges"/>
</g>
</g>
</g>
<g filter="url(#filter4_bd_4518_66611)">
<path fill-rule="evenodd" clip-rule="evenodd" d="M329.591 112.305C328.662 111.29 329.181 109.65 330.525 109.354L370.189 100.625C371.533 100.329 372.692 101.599 372.276 102.91L360.001 141.555C359.585 142.864 357.908 143.234 356.981 142.221L347.22 131.56C346.555 130.833 345.427 130.782 344.699 131.446L259.47 209.185C258.775 209.819 257.707 209.805 257.029 209.154L230.315 183.51C229.642 182.864 228.585 182.844 227.889 183.465L125.878 274.377C125.142 275.032 124.015 274.968 123.358 274.234L120.342 270.862C119.683 270.126 119.747 268.995 120.485 268.338L228.097 172.435C228.793 171.814 229.849 171.834 230.522 172.48L257.174 198.063C257.852 198.714 258.919 198.728 259.614 198.094L339.227 125.479C339.957 124.813 340.008 123.682 339.341 122.953L329.591 112.305Z" fill="#05C3DD"/>
<path fill-rule="evenodd" clip-rule="evenodd" d="M329.591 112.305C328.662 111.29 329.181 109.65 330.525 109.354L370.189 100.625C371.533 100.329 372.692 101.599 372.276 102.91L360.001 141.555C359.585 142.864 357.908 143.234 356.981 142.221L347.22 131.56C346.555 130.833 345.427 130.782 344.699 131.446L259.47 209.185C258.775 209.819 257.707 209.805 257.029 209.154L230.315 183.51C229.642 182.864 228.585 182.844 227.889 183.465L125.878 274.377C125.142 275.032 124.015 274.968 123.358 274.234L120.342 270.862C119.683 270.126 119.747 268.995 120.485 268.338L228.097 172.435C228.793 171.814 229.849 171.834 230.522 172.48L257.174 198.063C257.852 198.714 258.919 198.728 259.614 198.094L339.227 125.479C339.957 124.813 340.008 123.682 339.341 122.953L329.591 112.305Z" stroke="white" stroke-width="0.489072"/>
</g>
<defs>
<filter id="filter0_bddii_4518_66611" x="195.696" y="69.4698" width="247.142" height="247.142" filterUnits="userSpaceOnUse" color-interpolation-filters="sRGB">
<feFlood flood-opacity="0" result="BackgroundImageFix"/>
<feGaussianBlur in="BackgroundImageFix" stdDeviation="4.86179"/>
<feComposite in2="SourceAlpha" operator="in" result="effect1_backgroundBlur_4518_66611"/>
<feColorMatrix in="SourceAlpha" type="matrix" values="0 0 0 0 0 0 0 0 0 0 0 0 0 0 0 0 0 0 127 0" result="hardAlpha"/>
<feOffset dx="3.88943" dy="3.88943"/>
<feGaussianBlur stdDeviation="4.86179"/>
<feComposite in2="hardAlpha" operator="out"/>
<feColorMatrix type="matrix" values="0 0 0 0 0.610363 0 0 0 0 0.412876 0 0 0 0 1 0 0 0 0.3 0"/>
<feBlend mode="normal" in2="effect1_backgroundBlur_4518_66611" result="effect2_dropShadow_4518_66611"/>
<feColorMatrix in="SourceAlpha" type="matrix" values="0 0 0 0 0 0 0 0 0 0 0 0 0 0 0 0 0 0 127 0" result="hardAlpha"/>
<feOffset dx="1.94472" dy="1.94472"/>
<feGaussianBlur stdDeviation="1.94472"/>
<feComposite in2="hardAlpha" operator="out"/>
<feColorMatrix type="matrix" values="0 0 0 0 0 0 0 0 0 0 0 0 0 0 0 0 0 0 0.2 0"/>
<feBlend mode="normal" in2="effect2_dropShadow_4518_66611" result="effect3_dropShadow_4518_66611"/>
<feBlend mode="normal" in="SourceGraphic" in2="effect3_dropShadow_4518_66611" result="shape"/>
<feColorMatrix in="SourceAlpha" type="matrix" values="0 0 0 0 0 0 0 0 0 0 0 0 0 0 0 0 0 0 127 0" result="hardAlpha"/>
<feOffset dx="0.972358" dy="0.972358"/>
<feGaussianBlur stdDeviation="0.486179"/>
<feComposite in2="hardAlpha" operator="arithmetic" k2="-1" k3="1"/>
<feColorMatrix type="matrix" values="0 0 0 0 1 0 0 0 0 1 0 0 0 0 1 0 0 0 1 0"/>
<feBlend mode="normal" in2="shape" result="effect4_innerShadow_4518_66611"/>
<feColorMatrix in="SourceAlpha" type="matrix" values="0 0 0 0 0 0 0 0 0 0 0 0 0 0 0 0 0 0 127 0" result="hardAlpha"/>
<feOffset dx="-0.972358" dy="-0.972358"/>
<feGaussianBlur stdDeviation="0.486179"/>
<feComposite in2="hardAlpha" operator="arithmetic" k2="-1" k3="1"/>
<feColorMatrix type="matrix" values="0 0 0 0 0.611765 0 0 0 0 0.411765 0 0 0 0 1 0 0 0 1 0"/>
<feBlend mode="normal" in2="effect4_innerShadow_4518_66611" result="effect5_innerShadow_4518_66611"/>
</filter>
<filter id="filter1_bd_4518_66611" x="242.007" y="152.633" width="159.617" height="158.423" filterUnits="userSpaceOnUse" color-interpolation-filters="sRGB">
<feFlood flood-opacity="0" result="BackgroundImageFix"/>
<feGaussianBlur in="BackgroundImageFix" stdDeviation="1.78614"/>
<feComposite in2="SourceAlpha" operator="in" result="effect1_backgroundBlur_4518_66611"/>
<feColorMatrix in="SourceAlpha" type="matrix" values="0 0 0 0 0 0 0 0 0 0 0 0 0 0 0 0 0 0 127 0" result="hardAlpha"/>
<feOffset dx="1.63024" dy="1.63024"/>
<feGaussianBlur stdDeviation="0.81512"/>
<feComposite in2="hardAlpha" operator="out"/>
<feColorMatrix type="matrix" values="0 0 0 0 0 0 0 0 0 0 0 0 0 0 0 0 0 0 0.25 0"/>
<feBlend mode="normal" in2="effect1_backgroundBlur_4518_66611" result="effect2_dropShadow_4518_66611"/>
<feBlend mode="normal" in="SourceGraphic" in2="effect2_dropShadow_4518_66611" result="shape"/>
</filter>
<filter id="filter2_b_4518_66611" x="243.076" y="264.706" width="37.9442" height="45.2817" filterUnits="userSpaceOnUse" color-interpolation-filters="sRGB">
<feFlood flood-opacity="0" result="BackgroundImageFix"/>
<feGaussianBlur in="BackgroundImageFix" stdDeviation="1.25171"/>
<feComposite in2="SourceAlpha" operator="in" result="effect1_backgroundBlur_4518_66611"/>
<feBlend mode="normal" in="SourceGraphic" in2="effect1_backgroundBlur_4518_66611" result="shape"/>
</filter>
<filter id="filter3_bd_4518_66611" x="321.974" y="193.772" width="40.0817" height="117.283" filterUnits="userSpaceOnUse" color-interpolation-filters="sRGB">
<feFlood flood-opacity="0" result="BackgroundImageFix"/>
<feGaussianBlur in="BackgroundImageFix" stdDeviation="1.78614"/>
<feComposite in2="SourceAlpha" operator="in" result="effect1_backgroundBlur_4518_66611"/>
<feColorMatrix in="SourceAlpha" type="matrix" values="0 0 0 0 0 0 0 0 0 0 0 0 0 0 0 0 0 0 127 0" result="hardAlpha"/>
<feOffset dx="1.63024" dy="1.63024"/>
<feGaussianBlur stdDeviation="0.81512"/>
<feComposite in2="hardAlpha" operator="out"/>
<feColorMatrix type="matrix" values="0 0 0 0 0 0 0 0 0 0 0 0 0 0 0 0 0 0 0.25 0"/>
<feBlend mode="normal" in2="effect1_backgroundBlur_4518_66611" result="effect2_dropShadow_4518_66611"/>
<feBlend mode="normal" in="SourceGraphic" in2="effect2_dropShadow_4518_66611" result="shape"/>
</filter>
<filter id="filter4_bd_4518_66611" x="116.07" y="96.7646" width="260.109" height="181.882" filterUnits="userSpaceOnUse" color-interpolation-filters="sRGB">
<feFlood flood-opacity="0" result="BackgroundImageFix"/>
<feGaussianBlur in="BackgroundImageFix" stdDeviation="1.78614"/>
<feComposite in2="SourceAlpha" operator="in" result="effect1_backgroundBlur_4518_66611"/>
<feColorMatrix in="SourceAlpha" type="matrix" values="0 0 0 0 0 0 0 0 0 0 0 0 0 0 0 0 0 0 127 0" result="hardAlpha"/>
<feOffset dx="1.63024" dy="1.63024"/>
<feGaussianBlur stdDeviation="0.81512"/>
<feComposite in2="hardAlpha" operator="out"/>
<feColorMatrix type="matrix" values="0 0 0 0 0 0 0 0 0 0 0 0 0 0 0 0 0 0 0.25 0"/>
<feBlend mode="normal" in2="effect1_backgroundBlur_4518_66611" result="effect2_dropShadow_4518_66611"/>
<feBlend mode="normal" in="SourceGraphic" in2="effect2_dropShadow_4518_66611" result="shape"/>
</filter>
<linearGradient id="paint0_linear_4518_66611" x1="181.869" y1="79.1934" x2="437.812" y2="289.504" gradientUnits="userSpaceOnUse">
<stop stop-color="#EDE2FF"/>
<stop offset="1" stop-color="#9C69FF" stop-opacity="0"/>
</linearGradient>
<linearGradient id="paint1_linear_4518_66611" x1="181.091" y1="77.6387" x2="437.034" y2="287.949" gradientUnits="userSpaceOnUse">
<stop stop-color="#EDE2FF"/>
<stop offset="1" stop-color="#9C69FF" stop-opacity="0"/>
</linearGradient>
<linearGradient id="paint2_linear_4518_66611" x1="249.98" y1="301.006" x2="298.491" y2="223.78" gradientUnits="userSpaceOnUse">
<stop stop-color="white"/>
<stop offset="1" stop-color="#EBEBEB" stop-opacity="0"/>
</linearGradient>
<linearGradient id="paint3_linear_4518_66611" x1="329.947" y1="290.059" x2="454.474" y2="203.924" gradientUnits="userSpaceOnUse">
<stop stop-color="white"/>
<stop offset="1" stop-color="#EBEBEB" stop-opacity="0"/>
</linearGradient>
</defs>
</svg>
