<svg xmlns:xlink="http://www.w3.org/1999/xlink" xmlns="http://www.w3.org/2000/svg" width="18" height="20" viewBox="0 0 18 20" fill="none" class="css-cxrvnw"><path fill="#157EFB" d="M17.154 7.047a.962.962 0 00.114-1.119l-.616-1.07a.962.962 0 00-1.03-.436l-1.267.26c-.712.138-1.45.01-2.074-.362h-.02a2.953 2.953 0 01-1.329-1.61l-.4-1.241A.962.962 0 009.62.812H8.383a.961.961 0 00-.912.657l-.41 1.23A2.953 2.953 0 015.748 4.31h-.02a2.953 2.953 0 01-2.067.348l-1.283-.236a.961.961 0 00-1.027.463L.734 5.94a.961.961 0 00.112 1.106l.84.945c.49.553.758 1.269.751 2.008a2.986 2.986 0 01-.751 1.969l-.837.984a.962.962 0 00-.115 1.119l.617 1.07a.961.961 0 001.027.436l1.267-.26a2.953 2.953 0 012.073.362h.02c.625.357 1.097.93 1.33 1.61l.4 1.241a.96.96 0 00.912.657h1.237a.961.961 0 00.912-.657l.41-1.227a2.954 2.954 0 011.312-1.611h.02a2.953 2.953 0 012.067-.351l1.267.26a.961.961 0 001.027-.464l.617-1.07a.963.963 0 00-.095-1.115l-.86-.984A2.954 2.954 0 0115.562 10a2.953 2.953 0 01.729-1.969l.863-.984zM9 12.625a2.625 2.625 0 110-5.25 2.625 2.625 0 010 5.25z"></path></svg>