<?xml version="1.0" encoding="UTF-8"?>
<!-- Generator: visioncortex VTracer 0.6.3 -->
<svg version="1.1" xmlns="http://www.w3.org/2000/svg" width="1280" height="336">
<path d="M0 0 C12.21 4.27 26.06 18.79 32 30 C31.03 33.88 27.76 36.28 25 39 C23.74 40.25 22.48 41.51 21.22 42.76 C20.52 43.46 19.82 44.16 19.1 44.88 C15.95 48.01 12.81 51.14 9.67 54.28 C8.01 55.93 6.34 57.59 4.68 59.25 C2.28 61.64 -0.12 64.03 -2.52 66.42 C-3.27 67.17 -4.02 67.91 -4.79 68.68 C-5.48 69.36 -6.16 70.05 -6.87 70.75 C-7.47 71.36 -8.08 71.96 -8.7 72.58 C-10.11 73.8 -10.11 73.8 -10 75 C-7.84 77.23 -5.65 79.41 -3.44 81.59 C-2.07 82.94 -0.7 84.3 0.66 85.65 C2.84 87.8 5.01 89.94 7.18 92.09 C9.27 94.15 11.36 96.21 13.44 98.28 C14.42 99.24 14.42 99.24 15.43 100.23 C16.03 100.82 16.63 101.42 17.25 102.03 C17.78 102.56 18.31 103.09 18.86 103.63 C20 105 20 105 20 107 C20.58 107.25 21.16 107.5 21.75 107.75 C24.33 109.18 26.06 110.78 28 113 C28 113.66 28 114.32 28 115 C29.32 115.66 30.64 116.32 32 117 C29.95 129.24 15.75 139.98 6.36 146.88 C3.34 148.31 2.16 147.97 -1 147 C-3.12 145.36 -3.12 145.36 -5.24 143.21 C-6.04 142.41 -6.84 141.61 -7.67 140.79 C-8.51 139.92 -9.36 139.05 -10.24 138.15 C-11.12 137.27 -12 136.38 -12.91 135.47 C-15.24 133.11 -17.57 130.75 -19.89 128.39 C-22.26 125.98 -24.64 123.57 -27.03 121.17 C-31.69 116.46 -36.35 111.73 -41 107 C-44.32 108.44 -46.45 110.23 -48.95 112.82 C-49.72 113.61 -50.48 114.39 -51.27 115.2 C-52.09 116.04 -52.9 116.89 -53.75 117.76 C-55.49 119.54 -57.23 121.31 -58.97 123.09 C-61.71 125.89 -64.45 128.7 -67.18 131.52 C-69.81 134.24 -72.47 136.94 -75.12 139.64 C-76.34 140.91 -76.34 140.91 -77.59 142.22 C-78.74 143.38 -78.74 143.38 -79.92 144.57 C-80.59 145.25 -81.26 145.94 -81.95 146.65 C-84 148 -84 148 -86.61 147.81 C-97.95 143.97 -108.09 130.65 -114.92 121.32 C-116.31 118.33 -115.96 117.12 -115 114 C-113.39 111.95 -113.39 111.95 -111.29 109.92 C-110.51 109.15 -109.72 108.38 -108.91 107.59 C-107.64 106.37 -107.64 106.37 -106.34 105.12 C-104.56 103.38 -102.78 101.64 -101 99.89 C-98.18 97.15 -95.36 94.42 -92.53 91.69 C-89.81 89.05 -87.1 86.4 -84.4 83.75 C-83.54 82.93 -82.69 82.11 -81.81 81.27 C-80.64 80.12 -80.64 80.12 -79.45 78.95 C-78.76 78.29 -78.07 77.62 -77.35 76.93 C-75.8 75.12 -75.8 75.12 -76.05 73 C-77.24 70.48 -78.7 68.98 -80.71 67.05 C-81.49 66.28 -82.28 65.52 -83.09 64.73 C-83.94 63.91 -84.79 63.1 -85.66 62.25 C-87.44 60.51 -89.22 58.77 -91 57.03 C-93.82 54.29 -96.64 51.55 -99.47 48.82 C-102.19 46.19 -104.9 43.53 -107.6 40.88 C-108.46 40.06 -109.31 39.25 -110.19 38.41 C-110.97 37.64 -111.75 36.88 -112.55 36.08 C-113.24 35.41 -113.93 34.74 -114.65 34.05 C-116 32 -116 32 -115.79 29.39 C-113.58 22.69 -109.01 17.63 -103.58 13.33 C-101.81 11.94 -101.81 11.94 -100.12 9.5 C-96.6 5.35 -91.88 1.32 -86.33 0.7 C-84 1 -84 1 -82.12 3.12 C-81.42 4.07 -80.72 5.02 -80 6 C-78.17 7.62 -76.3 9.15 -74.39 10.67 C-73.93 11.11 -73.47 11.55 -73 12 C-73 12.66 -73 13.32 -73 14 C-72.42 14.25 -71.84 14.5 -71.25 14.75 C-68.67 16.18 -66.94 17.78 -65 20 C-65 20.66 -65 21.32 -65 22 C-64.14 22.37 -64.14 22.37 -63.26 22.76 C-60.68 24.18 -58.96 25.82 -56.89 27.91 C-56.14 28.67 -55.38 29.44 -54.61 30.22 C-53.83 31.01 -53.05 31.81 -52.25 32.62 C-51.46 33.43 -50.66 34.23 -49.85 35.05 C-47.89 37.03 -45.94 39.01 -44 41 C-40.57 39.07 -37.83 37.07 -35.07 34.28 C-34.33 33.54 -33.6 32.8 -32.84 32.04 C-32.07 31.25 -31.29 30.46 -30.49 29.65 C-29.68 28.83 -28.87 28.02 -28.04 27.18 C-25.46 24.58 -22.88 21.98 -20.31 19.38 C-17.73 16.76 -15.14 14.16 -12.56 11.55 C-10.95 9.93 -9.34 8.3 -7.74 6.68 C-7.02 5.95 -6.29 5.22 -5.54 4.46 C-4.91 3.82 -4.27 3.17 -3.61 2.5 C-2 1 -2 1 0 0 Z M29 28 C30 30 30 30 30 30 Z M-74 74 C-73 76 -73 76 -73 76 Z M30 118 C31 120 31 120 31 120 Z M28 121 C29 123 29 123 29 123 Z M23 127 C24 129 24 129 24 129 Z " fill="#0253FB" transform="translate(225,98)"/>
<path d="M0 0 C1.24 -0.03 2.47 -0.07 3.75 -0.1 C12.86 -0.15 12.86 -0.15 16.84 2.68 C17.45 3.59 18.06 4.5 18.69 5.44 C19.28 6.21 19.88 6.99 20.49 7.79 C20.99 8.54 21.49 9.29 22 10.06 C22.51 10.82 23.02 11.57 23.55 12.35 C24.69 14.44 24.69 14.44 24.69 17.44 C25.35 17.44 26.01 17.44 26.69 17.44 C28.2 19.41 28.2 19.41 29.95 22.15 C30.92 23.65 30.92 23.65 31.9 25.17 C32.91 26.76 32.91 26.76 33.94 28.38 C35.25 30.43 36.57 32.48 37.89 34.53 C38.53 35.52 39.17 36.52 39.83 37.55 C42 40.93 44.23 44.27 46.48 47.6 C47.52 49.18 48.48 50.8 49.44 52.44 C50.53 54.58 50.53 54.58 52.69 55.44 C52.68 54.78 52.68 54.12 52.67 53.44 C52.63 46.59 52.6 39.75 52.58 32.9 C52.57 30.35 52.55 27.79 52.54 25.23 C52.51 21.56 52.5 17.9 52.49 14.23 C52.48 13.08 52.47 11.93 52.46 10.74 C52.46 9.68 52.46 8.62 52.46 7.53 C52.46 6.59 52.45 5.66 52.45 4.69 C52.69 2.44 52.69 2.44 54.69 0.44 C59 -0.02 63.35 0.11 67.69 0.12 C69.51 0.1 69.51 0.1 71.37 0.08 C72.52 0.08 73.68 0.07 74.88 0.07 C76.47 0.07 76.47 0.07 78.11 0.07 C78.96 0.19 79.81 0.31 80.69 0.44 C82.76 3.55 82.94 4.19 82.93 7.71 C82.93 8.58 82.93 9.45 82.94 10.35 C82.93 11.78 82.93 11.78 82.91 13.23 C82.91 14.24 82.92 15.24 82.92 16.28 C82.91 19.61 82.9 22.93 82.88 26.26 C82.88 28.57 82.88 30.87 82.87 33.18 C82.87 39.25 82.85 45.32 82.82 51.39 C82.8 57.58 82.8 63.78 82.79 69.97 C82.76 82.13 82.73 94.28 82.69 106.44 C58 109.85 58 109.85 51.55 106.24 C48.18 102.77 46.56 98.35 44.79 93.91 C42.77 89.38 39.84 85.42 37.02 81.34 C35.87 79.62 34.72 77.89 33.57 76.17 C32.4 74.42 31.23 72.68 30.06 70.94 C28.86 69.13 27.65 67.33 26.44 65.52 C23.53 61.16 20.61 56.8 17.69 52.44 C16.02 54.1 16.52 56.13 16.48 58.42 C16.46 59.48 16.44 60.54 16.42 61.63 C16.41 62.79 16.39 63.94 16.37 65.13 C16.35 66.3 16.33 67.48 16.31 68.69 C16.24 72.46 16.18 76.23 16.12 80 C16.08 82.55 16.04 85.1 15.99 87.65 C15.89 93.91 15.79 100.17 15.69 106.44 C11.74 106.49 7.79 106.52 3.83 106.55 C1.83 106.56 -0.18 106.59 -2.18 106.61 C-3.44 106.62 -4.7 106.63 -5.99 106.63 C-7.15 106.64 -8.32 106.65 -9.52 106.66 C-12.31 106.44 -12.31 106.44 -14.31 104.44 C-14.64 104.44 -14.97 104.44 -15.31 104.44 C-15.36 91.17 -15.39 77.91 -15.42 64.64 C-15.43 58.48 -15.44 52.33 -15.46 46.17 C-15.49 40.23 -15.5 34.29 -15.5 28.35 C-15.51 26.08 -15.51 23.81 -15.52 21.54 C-15.54 18.37 -15.54 15.2 -15.54 12.03 C-15.55 11.08 -15.55 10.13 -15.56 9.16 C-15.56 8.3 -15.56 7.44 -15.55 6.55 C-15.55 5.8 -15.56 5.05 -15.56 4.28 C-14.7 -2.13 -4.71 0.02 0 0 Z M53.69 3.44 C53.54 10.79 53.4 18.14 53.26 25.49 C53.21 27.99 53.16 30.49 53.11 32.99 C53.04 36.59 52.98 40.18 52.91 43.77 C52.88 44.89 52.86 46.01 52.84 47.17 C52.82 48.21 52.8 49.25 52.78 50.32 C52.76 51.24 52.74 52.16 52.73 53.1 C52.7 54.88 52.69 56.66 52.69 58.44 C53.35 58.77 54.01 59.1 54.69 59.44 C54.69 40.96 54.69 22.48 54.69 3.44 C54.36 3.44 54.03 3.44 53.69 3.44 Z " fill="#0051FB" transform="translate(693.3125,122.5625)"/>
<path d="M0 0 C0.94 0 1.87 0 2.84 0 C3.9 0 4.96 -0 6.06 -0.01 C7.21 0 8.36 0.01 9.55 0.02 C10.73 0.02 11.91 0.02 13.13 0.02 C15.63 0.02 18.14 0.03 20.64 0.04 C24.47 0.06 28.3 0.06 32.12 0.06 C34.56 0.07 36.99 0.07 39.42 0.08 C40.57 0.08 41.71 0.08 42.89 0.08 C43.96 0.09 45.04 0.1 46.14 0.1 C47.08 0.11 48.02 0.11 48.99 0.11 C53.72 0.34 57.58 1.03 61.75 3.25 C63.11 3.62 63.11 3.62 64.5 4 C71.47 6.68 77.42 11.67 80.83 18.37 C82.05 22.2 82.08 25.69 82.06 29.68 C82.08 30.42 82.09 31.16 82.11 31.92 C82.12 38.19 80.53 42.23 76.31 47 C71.47 51.25 71.47 51.25 67.75 51.25 C67.75 51.91 67.75 52.57 67.75 53.25 C68.64 53.66 69.52 54.07 70.44 54.5 C76.07 57.47 79.62 60.65 82.75 66.25 C83.44 69.37 83.44 69.37 83.75 72.25 C83.92 72.87 84.08 73.5 84.26 74.14 C84.79 76.44 84.92 78.51 84.94 80.87 C84.95 81.65 84.97 82.42 84.98 83.22 C84.75 85.25 84.75 85.25 82.75 87.25 C82.48 88.32 82.21 89.39 81.94 90.5 C80.23 95.88 77.64 99.05 72.87 102.06 C69.48 103.35 66.35 103.89 62.75 104.25 C62.75 104.91 62.75 105.57 62.75 106.25 C62.01 106.23 61.26 106.21 60.5 106.18 C57.88 106.13 57.88 106.13 55.92 106.75 C53.31 107.35 50.96 107.34 48.28 107.3 C47.18 107.29 46.09 107.27 44.96 107.26 C43.2 107.23 43.2 107.23 41.4 107.2 C40.19 107.18 38.98 107.16 37.73 107.14 C35.17 107.1 32.62 107.05 30.06 107.01 C26.13 106.93 22.21 106.88 18.28 106.83 C15.8 106.78 13.32 106.74 10.84 106.7 C9.66 106.68 8.48 106.67 7.26 106.65 C6.17 106.63 5.08 106.61 3.96 106.58 C3 106.57 2.04 106.55 1.05 106.53 C-1.25 106.25 -1.25 106.25 -3.25 104.25 C-3.58 104.25 -3.91 104.25 -4.25 104.25 C-4.3 90.98 -4.33 77.72 -4.35 64.45 C-4.36 58.29 -4.38 52.14 -4.4 45.98 C-4.42 40.04 -4.43 34.1 -4.44 28.16 C-4.44 25.89 -4.45 23.62 -4.46 21.35 C-4.48 18.18 -4.48 15.01 -4.48 11.84 C-4.48 10.89 -4.49 9.94 -4.5 8.97 C-4.5 8.11 -4.49 7.25 -4.49 6.36 C-4.49 5.61 -4.49 4.86 -4.5 4.09 C-4.1 1.12 -2.88 0.32 0 0 Z M-1.25 1.25 C-1.25 1.58 -1.25 1.91 -1.25 2.25 C16.24 2.25 33.73 2.25 51.75 2.25 C51.75 1.92 51.75 1.59 51.75 1.25 C34.26 1.25 16.77 1.25 -1.25 1.25 Z M26.75 24.25 C26.75 24.58 26.75 24.91 26.75 25.25 C32.69 25.25 38.63 25.25 44.75 25.25 C44.75 24.92 44.75 24.59 44.75 24.25 C38.81 24.25 32.87 24.25 26.75 24.25 Z M25.75 25.25 C25.71 27.85 25.67 30.44 25.62 33.12 C25.61 33.94 25.59 34.76 25.57 35.6 C25.56 37.48 25.65 39.37 25.75 41.25 C26.41 41.91 27.07 42.57 27.75 43.25 C28.08 42.92 28.41 42.59 28.75 42.25 C32.06 42.25 35.36 42.33 38.67 42.46 C43.28 42.56 46.06 42.05 49.75 39.25 C51.25 37.75 51.08 36.26 51.31 34.18 C51.46 32.89 51.6 31.59 51.75 30.25 C51.09 30.25 50.43 30.25 49.75 30.25 C49.09 28.6 48.43 26.95 47.75 25.25 C40.49 25.25 33.23 25.25 25.75 25.25 Z M26.75 63.25 C26.75 63.58 26.75 63.91 26.75 64.25 C33.68 64.25 40.61 64.25 47.75 64.25 C47.75 63.92 47.75 63.59 47.75 63.25 C40.82 63.25 33.89 63.25 26.75 63.25 Z M25.75 64.25 C25.75 69.86 25.75 75.47 25.75 81.25 C29.37 83.06 33.59 82.22 37.56 82.06 C38.47 82.04 39.37 82.02 40.3 82 C44.49 81.83 47.15 81.59 50.84 79.46 C52.87 77.11 53.41 76.06 53.56 73 C53.66 71.14 53.66 71.14 53.75 69.25 C53.09 69.25 52.43 69.25 51.75 69.25 C51.42 68.26 51.09 67.27 50.75 66.25 C48.23 64.99 46.34 65.04 43.52 64.93 C42.49 64.89 41.46 64.85 40.4 64.8 C39.32 64.76 38.24 64.73 37.12 64.68 C35.49 64.62 35.49 64.62 33.83 64.55 C31.14 64.45 28.44 64.35 25.75 64.25 Z M53.75 73.25 C54.75 75.25 54.75 75.25 54.75 75.25 Z M27.75 82.25 C27.75 82.58 27.75 82.91 27.75 83.25 C34.35 83.25 40.95 83.25 47.75 83.25 C47.75 82.92 47.75 82.59 47.75 82.25 C41.15 82.25 34.55 82.25 27.75 82.25 Z " fill="#0252FB" transform="translate(796.2501831054688,122.75276184082031)"/>
<path d="M0 0 C3.67 1.27 6.04 2.66 8.77 5.41 C9.43 6.07 10.09 6.73 10.77 7.41 C11.45 8.1 12.12 8.79 12.81 9.5 C13.51 10.19 14.2 10.88 14.91 11.59 C20 16.73 20 16.73 20 19 C20.58 19.26 21.16 19.51 21.75 19.77 C24.24 21.13 25.94 22.65 27.96 24.64 C28.72 25.38 29.49 26.12 30.27 26.89 C31.09 27.7 31.9 28.5 32.74 29.33 C33.58 30.16 34.42 30.99 35.28 31.84 C37.06 33.6 38.83 35.35 40.59 37.11 C43.31 39.81 46.04 42.48 48.78 45.15 C50.49 46.86 52.21 48.56 53.93 50.27 C54.75 51.07 55.57 51.87 56.42 52.69 C57.17 53.45 57.92 54.2 58.69 54.98 C59.35 55.63 60.02 56.29 60.7 56.97 C62 59 62 59 61.71 61.75 C61.47 62.49 61.24 63.24 61 64 C59.51 64.5 59.51 64.5 58 65 C58 65.66 58 66.32 58 67 C56.36 68.36 54.68 69.69 53 71 C51.32 72.65 49.65 74.32 48 76 C33 91 18 106 3 121 C-0.99 119.39 -3.7 116.61 -6.69 113.62 C-7.24 113.07 -7.8 112.52 -8.37 111.96 C-10.21 110.15 -12.03 108.33 -13.86 106.51 C-15.13 105.25 -16.4 103.99 -17.68 102.72 C-20.34 100.08 -23 97.42 -25.65 94.77 C-29.06 91.37 -32.48 87.98 -35.91 84.6 C-38.54 82 -41.16 79.39 -43.78 76.77 C-45.04 75.52 -46.3 74.27 -47.57 73.02 C-49.33 71.28 -51.08 69.53 -52.83 67.77 C-53.36 67.26 -53.88 66.74 -54.43 66.22 C-56.66 63.94 -57.92 62.48 -58.44 59.29 C-57.79 55.9 -56.04 54.47 -53.58 52.09 C-52.66 51.18 -51.73 50.28 -50.78 49.34 C-49.79 48.39 -48.8 47.45 -47.81 46.5 C-46.84 45.55 -45.87 44.61 -44.9 43.66 C-43.11 41.91 -41.3 40.16 -39.5 38.42 C-37.77 36.74 -36.06 35.05 -34.37 33.35 C-32 31 -32 31 -29 28.56 C-25.92 25.93 -23.55 23.14 -21 20 C-18.42 17.29 -15.83 14.87 -12.94 12.5 C-9.96 10.13 -9.96 10.13 -7.88 7.31 C-5.97 4.96 -4.68 4.25 -2 3 C-1.34 2.01 -0.68 1.02 0 0 Z " fill="#0353FB" transform="translate(81,112)"/>
<path d="M0 0 C3.6 1.38 5.9 3.7 8.56 6.39 C9.41 7.23 9.41 7.23 10.28 8.08 C12.15 9.93 14.01 11.79 15.86 13.66 C17.16 14.95 18.45 16.24 19.75 17.53 C22.46 20.23 25.16 22.94 27.86 25.65 C31.33 29.13 34.81 32.59 38.3 36.05 C40.98 38.71 43.65 41.37 46.31 44.05 C47.59 45.33 48.88 46.61 50.17 47.88 C51.96 49.66 53.74 51.45 55.52 53.25 C56.33 54.04 56.33 54.04 57.15 54.85 C60.6 58.39 60.6 58.39 60.8 61.02 C59.08 64 56.79 66.31 54.37 68.72 C53.82 69.27 53.27 69.83 52.7 70.41 C50.88 72.25 49.05 74.08 47.22 75.91 C45.96 77.18 44.69 78.46 43.42 79.73 C40.77 82.4 38.11 85.06 35.44 87.72 C32.02 91.14 28.62 94.57 25.22 98.01 C22.61 100.64 19.99 103.27 17.36 105.89 C16.1 107.15 14.85 108.42 13.6 109.68 C11.85 111.45 10.09 113.21 8.32 114.96 C7.8 115.49 7.29 116.02 6.75 116.56 C3.27 119.97 3.27 119.97 0.66 120.17 C-2.36 118.43 -4.69 116.09 -7.11 113.64 C-7.68 113.08 -8.24 112.52 -8.82 111.94 C-10.69 110.09 -12.54 108.23 -14.39 106.37 C-15.69 105.08 -16.98 103.79 -18.27 102.5 C-20.98 99.8 -23.68 97.09 -26.38 94.38 C-29.84 90.9 -33.31 87.44 -36.79 83.98 C-39.46 81.32 -42.12 78.65 -44.78 75.98 C-46.06 74.7 -47.34 73.42 -48.63 72.15 C-50.42 70.36 -52.2 68.57 -53.98 66.78 C-54.51 66.25 -55.04 65.72 -55.59 65.18 C-58.11 62.61 -59.98 60.69 -60.35 57.01 C-59.61 56.38 -59.61 56.38 -58.85 55.73 C-54.15 51.67 -49.69 47.45 -45.35 43.01 C-40.35 38.01 -40.35 38.01 -38.17 35.85 C-35.38 33.06 -32.63 30.22 -29.88 27.39 C-26.98 24.41 -24.07 21.45 -21.15 18.48 C-19.61 16.91 -18.08 15.34 -16.55 13.76 C-14.34 11.48 -12.11 9.22 -9.88 6.96 C-9.2 6.25 -8.52 5.54 -7.82 4.8 C-7.18 4.16 -6.53 3.51 -5.87 2.85 C-5.31 2.28 -4.75 1.7 -4.17 1.11 C-2.35 0.01 -2.35 0.01 0 0 Z " fill="#0252FB" transform="translate(182.35061645507813,12.986831665039063)"/>
<path d="M0 0 C0.77 0 1.54 0 2.34 0 C3.65 -0 3.65 -0 4.99 -0.01 C5.94 0 6.89 0.01 7.86 0.02 C8.84 0.02 9.82 0.02 10.82 0.02 C12.9 0.02 14.97 0.03 17.04 0.04 C20.2 0.06 23.35 0.06 26.5 0.06 C28.52 0.07 30.53 0.07 32.55 0.08 C33.49 0.08 34.42 0.08 35.39 0.08 C49.36 0.18 49.36 0.18 55.1 3.25 C56.03 3.38 56.95 3.52 57.89 3.65 C69.8 5.86 80.21 15.8 86.99 25.4 C88.5 27.91 89.38 30.41 90.1 33.25 C90.43 34.24 90.76 35.23 91.1 36.25 C92 38.93 92.55 41.49 93.1 44.25 C93.43 45.24 93.76 46.23 94.1 47.25 C94.33 50.22 94.29 53.2 94.29 56.18 C94.3 57 94.32 57.81 94.33 58.64 C94.33 59.43 94.33 60.22 94.34 61.02 C94.34 61.74 94.34 62.45 94.35 63.19 C94.07 65.57 93.24 67.16 92.1 69.25 C91.84 70.6 91.61 71.95 91.42 73.31 C89.69 81.57 84.72 88.22 78.1 93.25 C77.34 94.07 76.58 94.9 75.79 95.75 C70.58 100.59 65.13 102.66 58.1 103.25 C58.1 103.91 58.1 104.57 58.1 105.25 C53.65 105.74 53.65 105.74 49.1 106.25 C49.1 106.58 49.1 106.91 49.1 107.25 C31.94 106.92 14.78 106.59 -2.9 106.25 C-4.04 103.96 -4.02 102.69 -4.03 100.15 C-4.03 99.29 -4.04 98.43 -4.04 97.55 C-4.04 96.6 -4.04 95.66 -4.04 94.69 C-4.04 93.7 -4.05 92.7 -4.05 91.68 C-4.06 88.39 -4.06 85.1 -4.06 81.81 C-4.07 79.53 -4.07 77.25 -4.07 74.97 C-4.08 70.19 -4.08 65.41 -4.08 60.63 C-4.08 54.49 -4.09 48.35 -4.11 42.21 C-4.12 37.5 -4.12 32.79 -4.12 28.08 C-4.12 25.82 -4.13 23.55 -4.14 21.29 C-4.15 18.13 -4.14 14.97 -4.14 11.81 C-4.14 10.86 -4.15 9.92 -4.15 8.95 C-4.15 8.09 -4.15 7.23 -4.14 6.35 C-4.14 5.6 -4.14 4.85 -4.14 4.08 C-3.78 1.37 -2.7 0.35 0 0 Z M-0.9 1.25 C-0.9 1.58 -0.9 1.91 -0.9 2.25 C13.62 2.25 28.14 2.25 43.1 2.25 C43.1 1.92 43.1 1.59 43.1 1.25 C28.58 1.25 14.06 1.25 -0.9 1.25 Z M26.1 28.25 C26.1 45.08 26.1 61.91 26.1 79.25 C31.61 82 42.87 79.98 48.67 78.12 C54.83 74.76 59.81 70 62.1 63.25 C63.38 55.13 64.3 46.47 60.42 39 C57.84 35.94 55.24 33.72 52.1 31.25 C51.42 30.38 51.42 30.38 50.73 29.5 C45.37 25.37 32.18 26.22 26.1 28.25 Z M63.1 49.25 C64.1 51.25 64.1 51.25 64.1 51.25 Z M63.1 58.25 C64.1 60.25 64.1 60.25 64.1 60.25 Z M29.1 80.25 C29.1 80.58 29.1 80.91 29.1 81.25 C33.06 81.25 37.02 81.25 41.1 81.25 C41.1 80.92 41.1 80.59 41.1 80.25 C37.14 80.25 33.18 80.25 29.1 80.25 Z M86.1 80.25 C87.1 82.25 87.1 82.25 87.1 82.25 Z M84.1 83.25 C85.1 85.25 85.1 85.25 85.1 85.25 Z " fill="#0454FB" transform="translate(940.8950500488281,122.75276184082031)"/>
<path d="M0 0 C3.09 1.32 4.25 3.29 6.25 5.96 C8.23 7.65 10.24 9.32 12.25 10.96 C13.94 12.61 15.61 14.27 17.25 15.96 C17.85 16.52 18.45 17.08 19.06 17.65 C20.25 18.96 20.25 18.96 20.25 20.96 C20.83 21.21 21.41 21.46 22 21.71 C24.58 23.15 26.31 24.75 28.25 26.96 C28.25 27.62 28.25 28.28 28.25 28.96 C28.85 29.24 29.45 29.51 30.06 29.79 C32.18 30.92 33.59 32.03 35.29 33.7 C35.86 34.24 36.42 34.79 37 35.36 C37.59 35.94 38.19 36.53 38.8 37.14 C39.42 37.75 40.04 38.36 40.68 38.99 C41.98 40.27 43.28 41.56 44.57 42.86 C46.56 44.84 48.57 46.8 50.58 48.76 C51.84 50.01 53.11 51.26 54.37 52.52 C54.97 53.1 55.58 53.69 56.2 54.29 C57.86 55.97 57.86 55.97 60.25 58.96 C59.81 63.65 56.35 66.29 53.17 69.44 C52.56 70.06 51.95 70.67 51.32 71.3 C50.03 72.6 48.73 73.89 47.43 75.17 C45.45 77.14 43.48 79.13 41.51 81.12 C40.25 82.37 38.99 83.63 37.73 84.88 C37.14 85.48 36.55 86.07 35.95 86.68 C33.06 89.53 31.13 91.02 27.25 91.96 C25.2 93.72 23.32 95.47 21.43 97.39 C20.88 97.93 20.33 98.48 19.77 99.04 C18.62 100.19 17.47 101.34 16.32 102.5 C14.57 104.27 12.8 106.02 11.03 107.77 C9.91 108.89 8.79 110.02 7.68 111.14 C7.15 111.66 6.62 112.18 6.07 112.72 C2.58 116.28 2.58 116.28 1.25 120.96 C-2.74 119.35 -5.44 116.56 -8.42 113.57 C-8.97 113.02 -9.53 112.47 -10.1 111.9 C-11.93 110.08 -13.75 108.26 -15.57 106.44 C-16.84 105.17 -18.11 103.91 -19.38 102.64 C-22.04 99.99 -24.7 97.34 -27.35 94.68 C-30.75 91.27 -34.16 87.88 -37.58 84.48 C-40.2 81.87 -42.82 79.26 -45.43 76.64 C-46.69 75.38 -47.95 74.13 -49.21 72.88 C-50.97 71.13 -52.72 69.38 -54.47 67.62 C-54.99 67.1 -55.51 66.59 -56.05 66.06 C-57.93 64.15 -59.56 62.29 -60.9 59.97 C-60.64 56.49 -57.99 54.5 -55.62 52.17 C-55.06 51.6 -54.5 51.03 -53.93 50.45 C-52.08 48.57 -50.21 46.71 -48.33 44.85 C-47.04 43.55 -45.75 42.26 -44.46 40.96 C-41.76 38.24 -39.04 35.53 -36.32 32.83 C-32.83 29.36 -29.36 25.86 -25.9 22.36 C-23.24 19.68 -20.57 17 -17.89 14.34 C-16.6 13.06 -15.32 11.77 -14.05 10.48 C-12.27 8.67 -10.46 6.89 -8.66 5.11 C-8.13 4.57 -7.6 4.03 -7.06 3.47 C-3.43 -0.05 -3.43 -0.05 0 0 Z " fill="#0252FB" transform="translate(282.7481384277344,112.03767395019531)"/>
<path d="M0 0 C4.27 2.3 7.51 5.24 10.89 8.66 C11.46 9.23 12.02 9.8 12.61 10.38 C14.47 12.24 16.32 14.11 18.18 15.98 C19.47 17.28 20.76 18.57 22.06 19.87 C25.45 23.27 28.84 26.68 32.23 30.09 C35.69 33.58 39.16 37.05 42.63 40.53 C49.42 47.35 56.21 54.17 63 61 C62.07 62.11 61.13 63.22 60.2 64.32 C59.67 64.94 59.15 65.56 58.62 66.19 C55.88 69.25 52.88 72.14 49.11 73.86 C46.39 75.33 44.5 77.2 42.31 79.38 C41.52 80.15 40.74 80.92 39.93 81.71 C38.06 83.93 37.38 85.17 37 88 C36.4 88.1 35.8 88.21 35.19 88.31 C32.64 89.11 31.63 89.9 30 92 C29.88 92.68 29.75 93.36 29.62 94.06 C29.42 94.7 29.21 95.34 29 96 C26.62 97.06 26.62 97.06 24 98 C21.37 100.07 20.57 101.72 20 105 C19.38 105.08 18.76 105.17 18.12 105.25 C15.84 105.8 15.84 105.8 14.88 107.94 C14.59 108.62 14.3 109.3 14 110 C12 112 12 112 10 112.88 C7.53 114.26 7.09 115.44 6 118 C5.34 118.99 4.68 119.98 4 121 C0.02 120.45 -1.78 118.58 -4.55 115.77 C-5.45 114.87 -6.34 113.98 -7.26 113.05 C-8.23 112.07 -9.2 111.08 -10.16 110.09 C-11.16 109.09 -12.16 108.08 -13.16 107.08 C-15.79 104.44 -18.4 101.78 -21.02 99.13 C-25.21 94.88 -29.41 90.64 -33.62 86.4 C-35.09 84.92 -36.55 83.44 -38.02 81.95 C-38.9 81.05 -39.79 80.15 -40.71 79.23 C-41.49 78.43 -42.27 77.64 -43.08 76.82 C-44.88 74.94 -44.88 74.94 -47 74 C-47 73.34 -47 72.68 -47 72 C-47.66 72 -48.32 72 -49 72 C-50.34 70.34 -51.67 68.67 -53 67 C-53.89 66.32 -54.77 65.64 -55.69 64.94 C-58 63 -58 63 -58.98 61.25 C-59 59 -59 59 -56.88 56.28 C-55.83 55.22 -54.77 54.17 -53.7 53.13 C-52.83 52.27 -52.83 52.27 -51.95 51.38 C-50.04 49.48 -48.12 47.59 -46.19 45.7 C-44.87 44.39 -43.54 43.07 -42.22 41.75 C-38.73 38.28 -35.23 34.83 -31.72 31.38 C-28.14 27.85 -24.58 24.31 -21.02 20.78 C-14.03 13.84 -7.02 6.91 0 0 Z M52 69 C53 71 53 71 53 71 Z " fill="#0051FB" transform="translate(181,211)"/>
<path d="M0 0 C1.66 0.38 3.32 0.73 5 1 C5 1.66 5 2.32 5 3 C5.72 3.09 6.43 3.19 7.17 3.28 C16.02 5.53 23.67 13.9 29 21 C30.78 24.21 31.84 27.52 33 31 C34.06 33.23 34.06 33.23 36 36 C36.39 38.32 36.72 40.66 37 43 C37.19 43.95 37.37 44.9 37.56 45.88 C38.33 51.37 38.45 56.63 37 62 C36.78 63.58 36.78 63.58 36.56 65.19 C36.38 66.12 36.19 67.04 36 68 C35.01 68.5 35.01 68.5 34 69 C34 70.65 34 72.3 34 74 C33.34 74 32.68 74 32 74 C31.63 75.55 31.63 75.55 31.25 77.12 C30.15 80.94 28.5 83.89 26 87 C25.01 87 24.02 87 23 87 C22.91 87.59 22.82 88.17 22.73 88.78 C21.2 93.46 16.27 96.69 12.12 99.08 C8.51 100.72 4.92 101.52 1 102 C1 102.66 1 103.32 1 104 C0.39 104.06 -0.23 104.12 -0.86 104.18 C-1.67 104.27 -2.48 104.35 -3.31 104.44 C-4.11 104.52 -4.91 104.6 -5.74 104.68 C-8.16 104.95 -8.16 104.95 -11 106 C-13.35 106.1 -15.71 106.13 -18.06 106.12 C-19.31 106.13 -20.56 106.13 -21.85 106.13 C-25 106 -25 106 -27 105 C-27.99 104.67 -28.98 104.34 -30 104 C-30.99 103.34 -31.98 102.68 -33 102 C-34.41 101.66 -35.82 101.37 -37.25 101.12 C-48.21 98.78 -56.86 90.7 -62.88 81.5 C-67.52 73.64 -70.42 67.17 -71 58 C-71.33 58 -71.66 58 -72 58 C-72.75 41.03 -68.89 27.05 -58 13.75 C-45.48 0.59 -16.9 -11.27 0 0 Z M-19 24 C-19 24.33 -19 24.66 -19 25 C-17.35 25 -15.7 25 -14 25 C-14 24.67 -14 24.34 -14 24 C-15.65 24 -17.3 24 -19 24 Z M-28 28 C-29.02 28.87 -29.02 28.87 -30.07 29.75 C-30.75 30.35 -31.43 30.95 -32.12 31.56 C-32.81 32.16 -33.49 32.76 -34.2 33.38 C-35.5 34.55 -36.76 35.76 -38 37 C-38.66 37.66 -39.32 38.32 -40 39 C-40.17 41.58 -40.17 41.58 -40 44 C-40.33 44 -40.66 44 -41 44 C-41.11 46.9 -41.19 49.79 -41.25 52.69 C-41.28 53.5 -41.32 54.32 -41.35 55.16 C-41.42 59.18 -41.41 61.36 -39.19 64.82 C-38.47 65.54 -37.75 66.26 -37 67 C-36.45 67.72 -35.89 68.43 -35.32 69.17 C-31.48 73.91 -29.03 75.96 -23 77 C-21.51 77.5 -21.51 77.5 -20 78 C-11.73 77.83 -5.65 76.26 0.19 70.25 C7.05 61.72 6.84 52.9 5.71 42.31 C4.8 37.03 2.95 33.78 -1 30 C-6.56 26.11 -11.3 24.85 -18 24.75 C-19.03 24.72 -20.06 24.7 -21.12 24.67 C-24.43 25.05 -25.56 25.79 -28 28 Z M-35 31 C-34 33 -34 33 -34 33 Z M-70 40 C-69 42 -69 42 -69 42 Z " fill="#0453FB" transform="translate(584,125)"/>
<path d="M0 0 C1.31 0.03 2.62 0.06 3.96 0.1 C7.19 0.18 10.4 0.29 13.62 0.44 C14.12 1.43 14.12 1.43 14.62 2.44 C16.65 3.09 16.65 3.09 18.62 3.44 C17.76 4.43 17.76 4.43 16.88 5.44 C14.66 8.39 13.17 11.23 11.65 14.57 C10.62 16.44 10.62 16.44 9.07 17.99 C7.36 19.49 7.36 19.49 6.62 22.44 C5.51 24.29 4.36 26.12 3.19 27.94 C2.57 28.9 1.95 29.86 1.32 30.84 C-0.31 33.33 -1.94 35.81 -3.63 38.26 C-5.12 40.43 -6.59 42.62 -8.06 44.81 C-8.59 45.57 -9.11 46.32 -9.65 47.1 C-12.47 51.23 -12.47 51.23 -13.54 55.99 C-11.77 59.72 -9.45 62.93 -7 66.25 C-5.9 67.77 -4.8 69.3 -3.7 70.82 C-3.15 71.59 -2.59 72.36 -2.01 73.15 C0.46 76.61 2.86 80.11 5.25 83.62 C10.27 90.97 15.42 98.22 20.62 105.44 C12.44 110.4 -2.35 109.15 -11.61 107.59 C-19.27 105.25 -22.59 99.35 -26.31 92.65 C-27.29 90.75 -28.24 88.83 -29.15 86.9 C-30.55 84.08 -32.25 81.76 -34.38 79.44 C-35.69 81.75 -37.02 84.06 -38.38 86.44 C-39.04 86.44 -39.69 86.44 -40.38 86.44 C-40.53 86.99 -40.69 87.55 -40.86 88.12 C-42.61 93.85 -45 98.51 -48.38 103.44 C-49.04 104.43 -49.69 105.42 -50.38 106.44 C-52.92 106.78 -55.24 106.93 -57.79 106.95 C-58.52 106.97 -59.25 106.99 -60 107 C-62.33 107.06 -64.67 107.09 -67 107.12 C-68.58 107.16 -70.16 107.19 -71.74 107.23 C-75.62 107.31 -79.5 107.38 -83.38 107.44 C-84.04 106.12 -84.69 104.8 -85.38 103.44 C-85 102.92 -84.62 102.41 -84.23 101.88 C-79.73 95.62 -75.71 89.15 -71.72 82.55 C-65.53 72.35 -59.01 62.36 -52.38 52.44 C-52.72 51.95 -53.07 51.46 -53.42 50.95 C-61.14 39.98 -68.78 28.96 -76.31 17.86 C-79.61 13.01 -82.94 8.19 -86.38 3.44 C-86.05 2.78 -85.71 2.12 -85.38 1.44 C-80.66 1.36 -75.95 1.34 -71.23 1.37 C-69.63 1.37 -68.03 1.36 -66.43 1.33 C-53.21 1.1 -53.21 1.1 -48.91 4.23 C-47.08 6.54 -45.72 8.82 -44.38 11.44 C-43.47 12.82 -42.54 14.2 -41.61 15.56 C-40.35 17.52 -39.09 19.49 -37.85 21.46 C-35.42 25.4 -35.42 25.4 -31.38 27.44 C-31.13 26.94 -30.89 26.44 -30.64 25.93 C-28.87 22.45 -27.01 19.04 -25.12 15.62 C-24.76 14.94 -24.39 14.25 -24 13.54 C-22.85 11.47 -21.63 9.45 -20.38 7.44 C-20 6.76 -19.63 6.08 -19.25 5.38 C-14.62 -1.64 -7.65 -0.35 0 0 Z M8.62 14.44 C9.62 16.44 9.62 16.44 9.62 16.44 Z M3.62 22.44 C4.62 24.44 4.62 24.44 4.62 24.44 Z M1.62 25.44 C2.62 27.44 2.62 27.44 2.62 27.44 Z M-33.38 28.44 C-32.71 29.1 -32.06 29.76 -31.38 30.44 C-31.05 29.78 -30.71 29.12 -30.38 28.44 C-31.37 28.44 -32.36 28.44 -33.38 28.44 Z M-0.38 28.44 C0.62 30.44 0.62 30.44 0.62 30.44 Z M-7.38 39.44 C-6.38 41.44 -6.38 41.44 -6.38 41.44 Z M-9.38 42.44 C-8.38 44.44 -8.38 44.44 -8.38 44.44 Z M-16.38 53.44 C-15.38 55.44 -15.38 55.44 -15.38 55.44 Z M-38.38 81.44 C-37.38 83.44 -37.38 83.44 -37.38 83.44 Z M-45.38 93.44 C-44.38 95.44 -44.38 95.44 -44.38 95.44 Z " fill="#0253FB" transform="translate(1208.375,122.5625)"/>
<path d="M0 0 C1.52 -0 1.52 -0 3.07 -0.01 C7.76 0.02 10.89 0.13 15.06 2.31 C16.05 2.31 17.04 2.31 18.06 2.31 C18.06 2.97 18.06 3.63 18.06 4.31 C18.77 4.42 19.47 4.52 20.2 4.62 C31.67 7.38 39.99 16.06 46 25.75 C47.72 29.09 48.4 31.86 48.69 35.6 C48.8 36.93 48.8 36.93 48.92 38.29 C48.96 38.95 49.01 39.62 49.06 40.31 C44.74 40.49 40.42 40.61 36.09 40.7 C34.62 40.73 33.15 40.78 31.68 40.84 C19.41 41.34 19.41 41.34 16.06 38.79 C14.76 36.9 14.76 36.9 13.06 33.31 C8.27 30.25 3.7 29.31 -1.94 29.31 C-3.18 29.25 -3.18 29.25 -4.44 29.19 C-7.19 29.11 -7.19 29.11 -9.94 31.31 C-13.6 33.31 -13.6 33.31 -15.94 33.31 C-16.04 33.89 -16.14 34.47 -16.25 35.06 C-17.04 37.66 -18.24 39.21 -19.94 41.31 C-22.49 45.15 -22.23 48.31 -22.19 52.75 C-22.2 53.51 -22.2 54.28 -22.21 55.06 C-22.2 59.01 -22.12 61.9 -19.94 65.31 C-19.64 65.97 -19.35 66.63 -19.04 67.31 C-17.02 71.73 -15.24 74.75 -10.94 77.31 C-7.79 78.03 -7.79 78.03 -4.94 78.31 C-4.61 78.64 -4.28 78.97 -3.94 79.31 C3.48 78.83 8.94 77.82 14.06 72.31 C14.9 71.2 14.9 71.2 15.75 70.06 C17.06 68.31 17.06 68.31 20.06 67.31 C22.2 67.23 24.34 67.21 26.48 67.21 C28.36 67.22 28.36 67.22 30.28 67.22 C32.24 67.24 32.24 67.24 34.25 67.25 C35.59 67.26 36.92 67.26 38.26 67.26 C41.52 67.28 44.79 67.29 48.06 67.31 C49.67 73.23 48.58 78.52 45.65 83.91 C38.57 94.38 31.4 101.43 18.82 103.98 C17.95 104.14 17.95 104.14 17.06 104.31 C17.06 104.97 17.06 105.63 17.06 106.31 C16.39 106.37 15.71 106.43 15.02 106.5 C14.12 106.58 13.23 106.66 12.31 106.75 C10.99 106.87 10.99 106.87 9.64 107 C7.14 107.24 7.14 107.24 5.05 107.84 C2.64 108.41 0.42 108.44 -2.06 108.44 C-3.37 108.44 -3.37 108.44 -4.7 108.45 C-6.94 108.31 -6.94 108.31 -8.94 107.31 C-10.15 107.19 -11.37 107.06 -12.62 106.94 C-16.89 106.45 -20.08 105.17 -23.94 103.31 C-24.59 103 -25.24 102.69 -25.91 102.38 C-32.96 98.69 -42.18 91.84 -44.66 84.04 C-44.75 83.47 -44.84 82.9 -44.94 82.31 C-45.6 82.31 -46.26 82.31 -46.94 82.31 C-47.59 80.59 -48.23 78.86 -48.88 77.12 C-49.23 76.16 -49.59 75.2 -49.96 74.21 C-50.85 71.58 -51.46 69.04 -51.94 66.31 C-52.27 66.31 -52.6 66.31 -52.94 66.31 C-56.95 49.25 -51.89 32.84 -42.94 18.31 C-32.79 4.54 -16.36 -0.27 0 0 Z M-11.94 1.31 C-7.94 2.31 -7.94 2.31 -7.94 2.31 Z M-52.94 47.31 C-52.94 51.93 -52.94 56.55 -52.94 61.31 C-52.61 61.31 -52.28 61.31 -51.94 61.31 C-51.94 56.69 -51.94 52.07 -51.94 47.31 C-52.27 47.31 -52.6 47.31 -52.94 47.31 Z M44.06 81.31 C45.06 83.31 45.06 83.31 45.06 83.31 Z M42.06 84.31 C43.06 86.31 43.06 86.31 43.06 86.31 Z M40.06 87.31 C41.06 89.31 41.06 89.31 41.06 89.31 Z " fill="#0353FB" transform="translate(453.9375,122.6875)"/>
<path d="M0 0 C1.21 0.02 2.41 0.04 3.65 0.06 C4.65 0.07 4.65 0.07 5.66 0.09 C7.87 0.12 10.07 0.16 12.27 0.2 C13.79 0.23 15.32 0.25 16.84 0.27 C20.86 0.34 24.87 0.41 28.89 0.48 C32.98 0.55 37.08 0.61 41.18 0.68 C49.22 0.81 57.26 0.94 65.3 1.08 C65.33 4.89 65.34 8.71 65.36 12.52 C65.37 13.61 65.38 14.7 65.39 15.82 C65.39 16.85 65.39 17.89 65.4 18.95 C65.4 19.91 65.41 20.87 65.41 21.86 C65.3 24.08 65.3 24.08 64.3 25.08 C61.56 25.24 58.85 25.34 56.11 25.4 C54.88 25.43 54.88 25.43 53.62 25.46 C50.99 25.53 48.36 25.59 45.74 25.64 C43.96 25.69 42.18 25.73 40.4 25.78 C36.03 25.88 31.67 25.98 27.3 26.08 C27.3 30.37 27.3 34.66 27.3 39.08 C30.51 39.03 30.51 39.03 33.79 38.98 C35.86 38.95 37.93 38.94 40.01 38.92 C41.45 38.9 42.89 38.88 44.33 38.86 C46.4 38.82 48.47 38.8 50.54 38.79 C51.79 38.77 53.03 38.76 54.32 38.74 C55.3 38.85 56.28 38.97 57.3 39.08 C59.46 42.32 59.58 43.43 59.71 47.19 C59.75 48.07 59.78 48.96 59.82 49.87 C59.85 50.99 59.89 52.11 59.92 53.27 C60.05 56.84 60.17 60.41 60.3 64.08 C43.96 64.58 43.96 64.58 27.3 65.08 C26.97 70.03 26.64 74.98 26.3 80.08 C27.87 80.06 27.87 80.06 29.48 80.03 C33.37 79.98 37.25 79.95 41.14 79.92 C42.83 79.9 44.51 79.88 46.19 79.86 C48.61 79.82 51.03 79.8 53.45 79.79 C54.2 79.77 54.96 79.76 55.74 79.74 C57.86 79.74 57.86 79.74 61.3 80.08 C65.94 87.04 63.3 96.72 63.3 105.08 C41.52 105.08 19.74 105.08 -2.7 105.08 C-3.85 102.79 -3.83 101.52 -3.83 98.98 C-3.83 98.12 -3.83 97.26 -3.84 96.37 C-3.84 95.43 -3.83 94.48 -3.83 93.51 C-3.83 92.51 -3.83 91.52 -3.84 90.5 C-3.84 87.2 -3.84 83.91 -3.83 80.61 C-3.84 78.33 -3.84 76.05 -3.84 73.76 C-3.84 68.98 -3.84 64.19 -3.83 59.41 C-3.83 53.26 -3.83 47.11 -3.84 40.96 C-3.84 36.25 -3.84 31.53 -3.84 26.82 C-3.83 24.55 -3.84 22.29 -3.84 20.02 C-3.84 16.85 -3.84 13.69 -3.83 10.53 C-3.83 9.58 -3.84 8.63 -3.84 7.66 C-3.81 0.12 -3.81 0.12 0 0 Z M63.3 2.08 C63.3 9.01 63.3 15.94 63.3 23.08 C63.63 23.08 63.96 23.08 64.3 23.08 C64.3 16.15 64.3 9.22 64.3 2.08 C63.97 2.08 63.64 2.08 63.3 2.08 Z M27.3 23.08 C27.3 23.41 27.3 23.74 27.3 24.08 C39.18 24.08 51.06 24.08 63.3 24.08 C63.3 23.75 63.3 23.42 63.3 23.08 C51.42 23.08 39.54 23.08 27.3 23.08 Z M27.3 62.08 C27.3 62.41 27.3 62.74 27.3 63.08 C37.86 63.08 48.42 63.08 59.3 63.08 C59.3 62.75 59.3 62.42 59.3 62.08 C48.74 62.08 38.18 62.08 27.3 62.08 Z " fill="#0756FB" transform="translate(1049.7017974853516,123.91770935058594)"/>
<path d="M0 0 C1.21 0 2.43 0.01 3.68 0.01 C5.5 -0.01 5.5 -0.01 7.36 -0.04 C8.52 -0.04 9.67 -0.04 10.87 -0.04 C12.47 -0.05 12.47 -0.05 14.1 -0.05 C14.95 0.07 15.8 0.2 16.68 0.32 C18.75 3.43 18.93 4.08 18.92 7.59 C18.92 8.46 18.93 9.33 18.93 10.23 C18.92 11.18 18.91 12.14 18.91 13.12 C18.91 14.12 18.91 15.13 18.91 16.16 C18.91 19.49 18.89 22.82 18.88 26.15 C18.87 28.45 18.87 30.76 18.87 33.06 C18.86 39.13 18.84 45.2 18.82 51.28 C18.8 57.47 18.79 63.66 18.78 69.86 C18.76 82.01 18.72 94.17 18.68 106.32 C9.11 106.32 -0.46 106.32 -10.32 106.32 C-11.46 104.04 -11.45 102.76 -11.45 100.22 C-11.46 99.36 -11.46 98.51 -11.47 97.62 C-11.47 96.68 -11.47 95.74 -11.47 94.76 C-11.47 93.77 -11.47 92.78 -11.48 91.76 C-11.49 88.47 -11.49 85.18 -11.49 81.88 C-11.49 79.61 -11.49 77.33 -11.5 75.05 C-11.5 70.27 -11.51 65.48 -11.51 60.7 C-11.51 54.56 -11.52 48.42 -11.54 42.28 C-11.55 37.57 -11.55 32.86 -11.55 28.16 C-11.55 25.89 -11.55 23.63 -11.56 21.36 C-11.57 18.2 -11.57 15.04 -11.56 11.88 C-11.57 10.94 -11.57 9.99 -11.58 9.02 C-11.58 8.16 -11.57 7.31 -11.57 6.42 C-11.57 5.67 -11.57 4.93 -11.57 4.16 C-10.8 -1.53 -4.3 0.03 0 0 Z " fill="#0655FB" transform="translate(644.3203125,122.677734375)"/>
<path d="M0 0 C1.11 0.04 2.23 0.08 3.37 0.12 C4.58 0.17 5.79 0.21 7.03 0.26 C8.93 0.33 8.93 0.33 10.88 0.41 C12.14 0.46 13.41 0.5 14.72 0.55 C24.18 0.91 24.18 0.91 26.44 2.04 C26.44 36.03 26.44 70.02 26.44 105.04 C16.87 105.04 7.3 105.04 -2.56 105.04 C-3.71 102.75 -3.69 101.48 -3.69 98.93 C-3.69 98.07 -3.69 97.21 -3.7 96.33 C-3.69 95.38 -3.69 94.44 -3.69 93.46 C-3.69 92.47 -3.69 91.48 -3.7 90.45 C-3.7 87.16 -3.7 83.86 -3.69 80.56 C-3.69 78.28 -3.69 76 -3.7 73.72 C-3.7 68.93 -3.7 64.15 -3.69 59.36 C-3.68 53.21 -3.69 47.06 -3.69 40.91 C-3.7 36.2 -3.7 31.49 -3.69 26.78 C-3.69 24.51 -3.69 22.24 -3.7 19.97 C-3.7 16.81 -3.7 13.65 -3.69 10.48 C-3.69 9.54 -3.69 8.59 -3.7 7.61 C-3.67 0.05 -3.67 0.05 0 0 Z " fill="#0755FB" transform="translate(895.560302734375,123.96240234375)"/>
<path d="M0 0 C3.09 1.35 5.01 2.81 7.19 5.38 C7.7 5.96 8.21 6.55 8.73 7.15 C10.13 9.19 10.68 10.55 11 13 C9.14 15.31 7.32 17.26 5.19 19.3 C4.59 19.89 3.99 20.48 3.37 21.1 C1.45 22.99 -0.5 24.87 -2.44 26.75 C-3.74 28.03 -5.05 29.31 -6.35 30.6 C-9.56 33.75 -12.77 36.88 -16 40 C-20.5 38.62 -22.89 37.57 -25.88 33.88 C-26.47 33.15 -27.07 32.43 -27.68 31.68 C-28.12 31.13 -28.55 30.57 -29 30 C-26.19 25.35 -23.3 22.43 -19 19 C-16.52 16.64 -14.26 14.34 -12.19 11.62 C-9.65 8.58 -6.82 6.12 -3.8 3.55 C-1.92 1.97 -1.92 1.97 0 0 Z " fill="#0D5AFB" transform="translate(116,77)"/>
<path d="M0 0 C4.15 1.96 8.46 5.1 11 9 C10.33 13.62 7.31 16.16 4.14 19.33 C3.55 19.93 2.96 20.52 2.35 21.14 C1.11 22.39 -0.14 23.64 -1.39 24.89 C-3.31 26.81 -5.2 28.75 -7.1 30.69 C-8.31 31.9 -9.52 33.12 -10.74 34.33 C-11.31 34.92 -11.87 35.5 -12.46 36.1 C-14.08 37.7 -14.08 37.7 -17 40 C-20.78 39.54 -22.63 37.83 -25.31 35.19 C-26.03 34.5 -26.75 33.81 -27.49 33.11 C-29 31 -29 31 -29.04 29.05 C-27.56 26.14 -25.33 24.28 -23 22 C-21.33 20.32 -19.66 18.64 -17.99 16.95 C-16.58 15.54 -15.17 14.12 -13.76 12.71 C-12.79 11.73 -11.82 10.75 -10.85 9.77 C-9.44 8.35 -8.03 6.93 -6.61 5.52 C-5.78 4.67 -4.94 3.83 -4.08 2.96 C-2 1 -2 1 0 0 Z M8 9 C9 12 9 12 9 12 Z " fill="#0E5BFB" transform="translate(267,227)"/>
<path d="M0 0 C2.81 1.28 4.85 2.61 7.02 4.8 C7.86 5.64 7.86 5.64 8.72 6.5 C9.31 7.1 9.91 7.7 10.52 8.32 C11.13 8.94 11.75 9.56 12.38 10.2 C14.34 12.17 16.3 14.15 18.25 16.12 C19.58 17.47 20.91 18.81 22.24 20.14 C25.5 23.42 28.75 26.71 32 30 C30.5 33.17 29.11 35.02 26.38 37.25 C25.74 37.77 25.11 38.29 24.46 38.83 C23.98 39.21 23.5 39.6 23 40 C18.71 38.35 15.86 35.11 12.7 31.9 C12.11 31.3 11.52 30.71 10.9 30.09 C9.01 28.19 7.13 26.28 5.25 24.38 C3.97 23.08 2.69 21.79 1.4 20.5 C-1.74 17.34 -4.87 14.17 -8 11 C-6.22 5.3 -4.72 3.49 0 0 Z " fill="#0957FB" transform="translate(246,77)"/>
<path d="M0 0 C5.12 1.48 8 4.61 11.61 8.32 C12.23 8.94 12.84 9.56 13.48 10.2 C15.43 12.16 17.37 14.14 19.31 16.12 C20.64 17.47 21.96 18.81 23.29 20.14 C26.54 23.42 29.77 26.71 33 30 C31.5 33.17 30.11 35.02 27.38 37.25 C26.74 37.77 26.11 38.29 25.46 38.83 C24.98 39.21 24.5 39.6 24 40 C20.51 38.51 18.28 36.51 15.63 33.82 C14.81 33 13.99 32.17 13.14 31.31 C12.29 30.45 11.44 29.58 10.56 28.69 C9.72 27.83 8.87 26.98 8 26.1 C6.37 24.45 4.74 22.8 3.12 21.15 C0.76 18.76 -1.62 16.37 -4 14 C-5.33 12.67 -6.67 11.33 -8 10 C-5.84 6.02 -3.29 3.11 0 0 Z M26 35 C27 37 27 37 27 37 Z " fill="#0252FB" transform="translate(95,227)"/>
<path d="M0 0 C0.66 0.66 1.32 1.32 2 2 C1.53 2.4 1.05 2.8 0.57 3.21 C-4.88 7.9 -9.96 12.88 -15 18 C-15.91 18.89 -16.81 19.77 -17.75 20.69 C-20.11 23.05 -20.11 23.05 -22.5 26 C-25.85 30.02 -29.42 33.54 -33.44 36.88 C-36.6 39.53 -39.18 42.44 -41.74 45.68 C-42.15 46.12 -42.57 46.55 -43 47 C-43.66 47 -44.32 47 -45 47 C-45.23 47.55 -45.45 48.1 -45.69 48.67 C-47.39 51.69 -49.55 53.81 -52 56.25 C-52.89 57.14 -53.77 58.03 -54.69 58.95 C-57 61 -57 61 -59 61 C-57.39 56.98 -54.56 54.3 -51.54 51.31 C-50.98 50.76 -50.43 50.2 -49.85 49.63 C-48.02 47.79 -46.18 45.97 -44.34 44.14 C-43.06 42.87 -41.79 41.6 -40.51 40.32 C-37.16 36.98 -33.8 33.64 -30.44 30.3 C-27.01 26.89 -23.59 23.48 -20.16 20.07 C-13.45 13.37 -6.73 6.68 0 0 Z " fill="#2B6FFB" transform="translate(181,211)"/>
<path d="M0 0 C0.33 0 0.66 0 1 0 C1 33.99 1 67.98 1 103 C0.67 103 0.34 103 0 103 C0 69.01 0 35.02 0 0 Z " fill="#D3E6FD" transform="translate(777,126)"/>
<path d="M0 0 C0.99 0.33 1.98 0.66 3 1 C-0.3 4.3 -3.6 7.6 -7 11 C-7.66 10.34 -8.32 9.68 -9 9 C-6.03 6.03 -3.06 3.06 0 0 Z M-11 11 C-10.34 11.66 -9.68 12.32 -9 13 C-12.47 15.97 -12.47 15.97 -16 19 C-16 16 -16 16 -13.5 13.31 C-12.68 12.55 -11.85 11.79 -11 11 Z M-19 19 C-18.34 19.66 -17.68 20.32 -17 21 C-20.47 23.97 -20.47 23.97 -24 27 C-24 24 -24 24 -21.5 21.31 C-20.68 20.55 -19.85 19.79 -19 19 Z M-27 27 C-26.34 27.66 -25.68 28.32 -25 29 C-28.47 31.97 -28.47 31.97 -32 35 C-32 32 -32 32 -29.5 29.31 C-28.68 28.55 -27.85 27.79 -27 27 Z " fill="#4783FB" transform="translate(180,13)"/>
<path d="M0 0 C0 3 0 3 -1.52 4.88 C-2.58 5.94 -2.58 5.94 -3.67 7.01 C-4.47 7.81 -5.27 8.61 -6.1 9.44 C-6.97 10.3 -7.85 11.16 -8.75 12.04 C-9.64 12.93 -10.53 13.81 -11.44 14.72 C-13.8 17.07 -16.17 19.41 -18.54 21.75 C-20.96 24.14 -23.37 26.53 -25.78 28.93 C-30.51 33.63 -35.25 38.32 -40 43 C-40.66 42.34 -41.32 41.68 -42 41 C-41.47 40.54 -40.94 40.08 -40.4 39.61 C-31.68 31.93 -23.56 23.67 -15.38 15.44 C-13.88 13.94 -12.38 12.44 -10.89 10.94 C-7.26 7.29 -3.63 3.65 0 0 Z " fill="#0454FB" transform="translate(223,99)"/>
<path d="M0 0 C0 3 0 3 -2.11 5.45 C-3.08 6.42 -4.05 7.37 -5.03 8.32 C-5.54 8.83 -6.05 9.34 -6.58 9.86 C-8.21 11.48 -9.86 13.08 -11.5 14.69 C-12.61 15.78 -13.72 16.88 -14.82 17.97 C-17.54 20.66 -20.27 23.33 -23 26 C-23.33 25.34 -23.66 24.68 -24 24 C-19.33 18.41 -14.33 13.22 -9.19 8.06 C-8.52 7.39 -7.85 6.71 -7.16 6.02 C-6.52 5.38 -5.89 4.75 -5.23 4.1 C-4.66 3.53 -4.08 2.95 -3.49 2.36 C-2 1 -2 1 0 0 Z " fill="#4984FB" transform="translate(267,227)"/>
<path d="M0 0 C20.79 0 41.58 0 63 0 C63 0.33 63 0.66 63 1 C42.21 1 21.42 1 0 1 C0 0.67 0 0.34 0 0 Z " fill="#0051FB" transform="translate(1048,123)"/>
<path d="M0 0 C0.66 0.33 1.32 0.66 2 1 C-6.91 9.91 -15.82 18.82 -25 28 C-25 25 -25 25 -22.71 22.36 C-21.65 21.31 -20.6 20.27 -19.53 19.24 C-18.98 18.69 -18.42 18.14 -17.85 17.57 C-16.07 15.81 -14.29 14.06 -12.5 12.31 C-11.29 11.12 -10.09 9.93 -8.89 8.74 C-5.93 5.82 -2.97 2.91 0 0 Z " fill="#679AFB" transform="translate(311,203)"/>
<path d="M0 0 C10.23 0 20.46 0 31 0 C31 0.33 31 0.66 31 1 C20.77 1 10.54 1 0 1 C0 0.67 0 0.34 0 0 Z " fill="#0051FB" transform="translate(1123,123)"/>
<path d="M0 0 C8.58 0 17.16 0 26 0 C26 0.33 26 0.66 26 1 C17.42 1 8.84 1 0 1 C0 0.67 0 0.34 0 0 Z " fill="#0051FB" transform="translate(894,123)"/>
<path d="M0 0 C0.66 0.33 1.32 0.66 2 1 C-1.96 4.96 -5.92 8.92 -10 13 C-10 10 -10 10 -7.81 7.52 C-6.88 6.63 -5.96 5.73 -5 4.81 C-4.07 3.91 -3.14 3.01 -2.19 2.08 C-1.1 1.05 -1.1 1.05 0 0 Z " fill="#6598FB" transform="translate(230,284)"/>
<path d="M0 0 C0.66 0 1.32 0 2 0 C2 7.59 2 15.18 2 23 C1.67 23 1.34 23 1 23 C0.67 15.41 0.34 7.82 0 0 Z " fill="#CADFFC" transform="translate(1113,206)"/>
<path d="M0 0 C0.66 0.33 1.32 0.66 2 1 C-0.97 3.48 -0.97 3.48 -4 6 C-2.85 3.53 -1.95 1.95 0 0 Z " fill="#5F94FB" transform="translate(191,323)"/>
<path d="M0 0 C0.66 0.33 1.32 0.66 2 1 C-0.97 3.48 -0.97 3.48 -4 6 C-2.85 3.53 -1.95 1.95 0 0 Z " fill="#5F94FB" transform="translate(206,308)"/>
<path d="M0 0 C0.66 0.33 1.32 0.66 2 1 C-0.97 3.48 -0.97 3.48 -4 6 C-2.85 3.53 -1.95 1.95 0 0 Z " fill="#5F94FB" transform="translate(215,299)"/>
<path d="M0 0 C0.66 0.33 1.32 0.66 2 1 C0.35 2.32 -1.3 3.64 -3 5 C-1.12 1.12 -1.12 1.12 0 0 Z " fill="#5D93FB" transform="translate(198,316)"/>
<path d="M0 0 C1 4 1 4 1 4 Z " fill="#9EC0FC" transform="translate(544,183)"/>
<path d="M0 0 C1 4 1 4 1 4 Z " fill="#9EC0FC" transform="translate(432,167)"/>
<path d="M0 0 C3 1 3 1 3 1 Z " fill="#8CB4FC" transform="translate(551,228)"/>
<path d="M0 0 C3 1 3 1 3 1 Z " fill="#8CB4FC" transform="translate(859,227)"/>
<path d="M0 0 C3 1 3 1 3 1 Z " fill="#8CB4FC" transform="translate(548,227)"/>
<path d="M0 0 C3 1 3 1 3 1 Z " fill="#8CB4FC" transform="translate(471,227)"/>
<path d="M0 0 C3 1 3 1 3 1 Z " fill="#8CB4FC" transform="translate(999,226)"/>
<path d="M0 0 C3 1 3 1 3 1 Z " fill="#8CB4FC" transform="translate(862,226)"/>
<path d="M0 0 C0.99 0.5 0.99 0.5 2 1 C1.01 1.5 1.01 1.5 0 2 C0 1.34 0 0.68 0 0 Z " fill="#4682FB" transform="translate(607,212)"/>
<path d="" fill="#8CB4FC" transform="translate(0,0)"/>
<path d="" fill="#8CB4FC" transform="translate(0,0)"/>
<path d="" fill="#8CB4FC" transform="translate(0,0)"/>
<path d="M0 0 C0.99 0.5 0.99 0.5 2 1 C1.01 1.5 1.01 1.5 0 2 C0 1.34 0 0.68 0 0 Z " fill="#8CB4FC" transform="translate(438,156)"/>
<path d="" fill="#8CB4FC" transform="translate(0,0)"/>
<path d="M0 0 C2 1 2 1 2 1 Z " fill="#699BFC" transform="translate(585,227)"/>
<path d="M0 0 C2 1 2 1 2 1 Z " fill="#699BFC" transform="translate(588,226)"/>
<path d="M0 0 C2 1 2 1 2 1 Z " fill="#699BFC" transform="translate(546,226)"/>
<path d="M0 0 C2 1 2 1 2 1 Z " fill="#699BFC" transform="translate(474,226)"/>
<path d="M0 0 C2 1 2 1 2 1 Z " fill="#699BFC" transform="translate(543,225)"/>
<path d="M0 0 C2 1 2 1 2 1 Z " fill="#699BFC" transform="translate(477,225)"/>
<path d="" fill="#699BFC" transform="translate(0,0)"/>
<path d="" fill="#699BFC" transform="translate(0,0)"/>
<path d="" fill="#699BFC" transform="translate(0,0)"/>
<path d="" fill="#699BFC" transform="translate(0,0)"/>
<path d="" fill="#699BFC" transform="translate(0,0)"/>
<path d="" fill="#699BFC" transform="translate(0,0)"/>
<path d="M0 0 C2 1 2 1 2 1 Z " fill="#699BFC" transform="translate(864,174)"/>
<path d="" fill="#699BFC" transform="translate(0,0)"/>
<path d="" fill="#699BFC" transform="translate(0,0)"/>
<path d="" fill="#699BFC" transform="translate(0,0)"/>
<path d="" fill="#699BFC" transform="translate(0,0)"/>
<path d="" fill="#699BFC" transform="translate(0,0)"/>
<path d="M0 0 C2 1 2 1 2 1 Z " fill="#D3E6FD" transform="translate(97,117)"/>
<path d="" fill="#D3E6FD" transform="translate(0,0)"/>
<path d="" fill="#D3E6FD" transform="translate(0,0)"/>
<path d="" fill="#0051FB" transform="translate(0,0)"/>
<path d="" fill="#0051FB" transform="translate(0,0)"/>
<path d="" fill="#0051FB" transform="translate(0,0)"/>
<path d="" fill="#0051FB" transform="translate(0,0)"/>
<path d="" fill="#0051FB" transform="translate(0,0)"/>
<path d="" fill="#0051FB" transform="translate(0,0)"/>
<path d="" fill="#D3E6FD" transform="translate(0,0)"/>
<path d="" fill="#0051FB" transform="translate(0,0)"/>
<path d="" fill="#0051FB" transform="translate(0,0)"/>
<path d="" fill="#0051FB" transform="translate(0,0)"/>
<path d="" fill="#0051FB" transform="translate(0,0)"/>
<path d="" fill="#0051FB" transform="translate(0,0)"/>
<path d="" fill="#D3E6FD" transform="translate(0,0)"/>
<path d="" fill="#0051FB" transform="translate(0,0)"/>
<path d="" fill="#0051FB" transform="translate(0,0)"/>
<path d="" fill="#D3E6FD" transform="translate(0,0)"/>
<path d="" fill="#0051FB" transform="translate(0,0)"/>
</svg>
