<svg width="63" height="63" viewBox="0 0 63 63" fill="none" xmlns="http://www.w3.org/2000/svg">
<path d="M20.9375 36.0938C20.9375 38.64 22.9063 40.6875 25.3213 40.6875H30.2562C32.3562 40.6875 34.0625 38.9025 34.0625 36.6713C34.0625 34.2825 33.0125 33.4163 31.4638 32.865L23.5625 30.1088C22.0138 29.5575 20.9638 28.7175 20.9638 26.3025C20.9638 24.0975 22.67 22.2863 24.77 22.2863H29.705C32.12 22.2863 34.0888 24.3338 34.0888 26.88" stroke="black" stroke-width="2" stroke-linecap="round" stroke-linejoin="round"/>
<path d="M27.5 19.6875V43.3125" stroke="black" stroke-width="2" stroke-linecap="round" stroke-linejoin="round"/>
<path d="M53.75 31.5C53.75 45.99 41.99 57.75 27.5 57.75C13.01 57.75 1.25 45.99 1.25 31.5C1.25 17.01 13.01 5.25 27.5 5.25" stroke="black" stroke-width="2" stroke-linecap="round" stroke-linejoin="round"/>
<path d="M40.625 7.875V18.375H51.125" stroke="black" stroke-width="2" stroke-linecap="round" stroke-linejoin="round"/>
<path d="M53.75 5.25L40.625 18.375" stroke="black" stroke-width="2" stroke-linecap="round" stroke-linejoin="round"/>
</svg>
