<?xml version="1.0" encoding="UTF-8"?>
<svg version="1.1" xmlns="http://www.w3.org/2000/svg" width="512" height="512">
<path d="M0 0 C1.21147705 -0.01772461 2.4229541 -0.03544922 3.67114258 -0.05371094 C14.46633496 -0.04490273 25.15149745 0.75066712 33.82421875 7.71484375 C37.11072675 11.2428799 37.54999389 14.33726784 37.67578125 19.1171875 C36.70627709 24.97591159 33.4032788 28.5294749 29.0625 32.3125 C28.08023437 33.18261719 27.09796875 34.05273438 26.0859375 34.94921875 C24.53245231 36.27296317 22.96486474 37.5818827 21.3515625 38.83203125 C12.01837242 46.08387612 6.03369989 57.30942268 2.3125 68.3125 C1.99410156 69.24320312 1.67570312 70.17390625 1.34765625 71.1328125 C-3.74009847 88.34208421 -0.55176372 105.20841437 7.90307617 120.7668457 C19.80455505 141.39088056 39.66193798 154.85945027 59.6875 166.75 C86.06942615 182.41866174 112.11226783 199.00961513 121.125 230.125 C122.2009727 234.51117108 123.03069054 238.80354862 123.3125 243.3125 C123.39177734 244.488125 123.39177734 244.488125 123.47265625 245.6875 C124.04731406 262.47750221 118.7871666 280.98314958 108.3125 294.3125 C109.20710938 294.92996094 110.10171875 295.54742187 111.0234375 296.18359375 C118.58470636 301.45706717 125.63442431 306.93072119 132.3125 313.3125 C133.04726563 313.9725 133.78203125 314.6325 134.5390625 315.3125 C151.43329665 331.07249228 165.17214691 356.50957375 166.45141602 379.84667969 C167.46864064 409.76857937 159.88137436 434.48087283 139.6875 457 C102.24152126 496.98179628 42.80525654 504.1363367 -8.6875 509.3125 C-9.52569275 509.39820251 -10.3638855 509.48390503 -11.22747803 509.57220459 C-61.68802934 514.68034695 -115.30584339 515.60229602 -165.6875 509.3125 C-166.51199646 509.2106842 -167.33649292 509.10886841 -168.18597412 509.00396729 C-213.2588564 503.38367868 -265.42354111 496.5768725 -300.6875 465.3125 C-301.45320313 464.68988281 -302.21890625 464.06726563 -303.0078125 463.42578125 C-319.50572246 449.71584562 -328.93162502 430.16421586 -332.6875 409.3125 C-334.03126979 391.14287899 -332.36279831 373.55023036 -323.6875 357.3125 C-323.23503906 356.40242188 -322.78257812 355.49234375 -322.31640625 354.5546875 C-318.8421206 347.79442437 -314.57377712 342.10877205 -309.6875 336.3125 C-309.05714844 335.48492187 -308.42679687 334.65734375 -307.77734375 333.8046875 C-305.51381326 331.1053745 -303.11962282 329.01751522 -300.375 326.8125 C-299.47136719 326.0803125 -298.56773437 325.348125 -297.63671875 324.59375 C-294.37868267 322.07362673 -291.05282107 319.6870371 -287.6875 317.3125 C-288.21859375 316.343125 -288.7496875 315.37375 -289.296875 314.375 C-300.63117382 293.14997209 -303.97335666 268.65649712 -297.01171875 245.2265625 C-291.42686323 228.2358952 -283.59734368 213.81177437 -271.6875 200.3125 C-271.13707031 199.67828125 -270.58664062 199.0440625 -270.01953125 198.390625 C-258.33883619 185.81585205 -242.69600295 179.32849759 -226.6875 174.3125 C-226.50574219 173.00796875 -226.32398438 171.7034375 -226.13671875 170.359375 C-222.98479249 148.17899575 -217.24182409 131.33011972 -203.6875 113.3125 C-202.71103516 111.99958984 -202.71103516 111.99958984 -201.71484375 110.66015625 C-192.40398049 98.73005207 -181.15180933 88.14537832 -169.6875 78.3125 C-168.56992847 77.33898234 -167.45272309 76.36504416 -166.3359375 75.390625 C-158.31226503 68.43976566 -150.1302756 61.74768279 -141.6875 55.3125 C-140.96933105 54.76303711 -140.25116211 54.21357422 -139.51123047 53.64746094 C-128.94538947 45.60007789 -118.17930891 38.20186935 -106.70996094 31.50146484 C-104.87832999 30.42468518 -103.06620333 29.32222336 -101.2578125 28.20703125 C-79.63617842 15.21849567 -55.4079916 6.93099446 -30.6875 2.3125 C-29.47835938 2.085625 -28.26921875 1.85875 -27.0234375 1.625 C-18.03890393 0.23980425 -9.07754755 0.0802866 0 0 Z " fill="#825C3C" transform="translate(338.6875,-0.3125)"/>
<path d="M0 0 C1.21147705 -0.01772461 2.4229541 -0.03544922 3.67114258 -0.05371094 C14.46633496 -0.04490273 25.15149745 0.75066712 33.82421875 7.71484375 C37.11072675 11.2428799 37.54999389 14.33726784 37.67578125 19.1171875 C36.70627709 24.97591159 33.4032788 28.5294749 29.0625 32.3125 C28.08023437 33.18261719 27.09796875 34.05273438 26.0859375 34.94921875 C24.53245231 36.27296317 22.96486474 37.5818827 21.3515625 38.83203125 C12.01837242 46.08387612 6.03369989 57.30942268 2.3125 68.3125 C1.99410156 69.24320312 1.67570312 70.17390625 1.34765625 71.1328125 C-3.74009847 88.34208421 -0.55176372 105.20841437 7.90307617 120.7668457 C19.80455505 141.39088056 39.66193798 154.85945027 59.6875 166.75 C86.06942615 182.41866174 112.11226783 199.00961513 121.125 230.125 C122.2009727 234.51117108 123.03069054 238.80354862 123.3125 243.3125 C123.39177734 244.488125 123.39177734 244.488125 123.47265625 245.6875 C124.04731406 262.47750221 118.7871666 280.98314958 108.3125 294.3125 C109.20710938 294.92996094 110.10171875 295.54742187 111.0234375 296.18359375 C118.58470636 301.45706717 125.63442431 306.93072119 132.3125 313.3125 C133.04726563 313.9725 133.78203125 314.6325 134.5390625 315.3125 C151.43329665 331.07249228 165.17214691 356.50957375 166.45141602 379.84667969 C167.46864064 409.76857937 159.88137436 434.48087283 139.6875 457 C102.24152126 496.98179628 42.80525654 504.1363367 -8.6875 509.3125 C-9.52569275 509.39820251 -10.3638855 509.48390503 -11.22747803 509.57220459 C-61.68802934 514.68034695 -115.30584339 515.60229602 -165.6875 509.3125 C-166.51199646 509.2106842 -167.33649292 509.10886841 -168.18597412 509.00396729 C-213.2588564 503.38367868 -265.42354111 496.5768725 -300.6875 465.3125 C-301.45320313 464.68988281 -302.21890625 464.06726563 -303.0078125 463.42578125 C-319.50572246 449.71584562 -328.93162502 430.16421586 -332.6875 409.3125 C-334.03126979 391.14287899 -332.36279831 373.55023036 -323.6875 357.3125 C-323.23503906 356.40242188 -322.78257812 355.49234375 -322.31640625 354.5546875 C-318.8421206 347.79442437 -314.57377712 342.10877205 -309.6875 336.3125 C-309.05714844 335.48492187 -308.42679687 334.65734375 -307.77734375 333.8046875 C-305.51381326 331.1053745 -303.11962282 329.01751522 -300.375 326.8125 C-299.47136719 326.0803125 -298.56773437 325.348125 -297.63671875 324.59375 C-294.37868267 322.07362673 -291.05282107 319.6870371 -287.6875 317.3125 C-288.21859375 316.343125 -288.7496875 315.37375 -289.296875 314.375 C-300.63117382 293.14997209 -303.97335666 268.65649712 -297.01171875 245.2265625 C-291.42686323 228.2358952 -283.59734368 213.81177437 -271.6875 200.3125 C-271.13707031 199.67828125 -270.58664062 199.0440625 -270.01953125 198.390625 C-258.33883619 185.81585205 -242.69600295 179.32849759 -226.6875 174.3125 C-226.50574219 173.00796875 -226.32398438 171.7034375 -226.13671875 170.359375 C-222.98479249 148.17899575 -217.24182409 131.33011972 -203.6875 113.3125 C-202.71103516 111.99958984 -202.71103516 111.99958984 -201.71484375 110.66015625 C-192.40398049 98.73005207 -181.15180933 88.14537832 -169.6875 78.3125 C-168.56992847 77.33898234 -167.45272309 76.36504416 -166.3359375 75.390625 C-158.31226503 68.43976566 -150.1302756 61.74768279 -141.6875 55.3125 C-140.96933105 54.76303711 -140.25116211 54.21357422 -139.51123047 53.64746094 C-128.94538947 45.60007789 -118.17930891 38.20186935 -106.70996094 31.50146484 C-104.87832999 30.42468518 -103.06620333 29.32222336 -101.2578125 28.20703125 C-79.63617842 15.21849567 -55.4079916 6.93099446 -30.6875 2.3125 C-29.47835938 2.085625 -28.26921875 1.85875 -27.0234375 1.625 C-18.03890393 0.23980425 -9.07754755 0.0802866 0 0 Z M-86.6875 53.3125 C-87.3479834 53.68487793 -88.0084668 54.05725586 -88.68896484 54.44091797 C-105.17423116 63.78606894 -120.21999296 75.11762455 -134.6875 87.3125 C-135.31366211 87.83956543 -135.93982422 88.36663086 -136.58496094 88.90966797 C-145.99766225 96.86954995 -155.06749543 105.17579159 -163.98095703 113.68945312 C-165.411742 115.05023402 -166.85834648 116.39435517 -168.30859375 117.734375 C-180.88213737 129.65794934 -195.20654573 148.54104873 -196.6875 166.3125 C-196.70451861 168.04159076 -196.70873917 169.7708346 -196.703125 171.5 C-196.69974121 172.85158203 -196.69974121 172.85158203 -196.69628906 174.23046875 C-196.69338867 174.91753906 -196.69048828 175.60460937 -196.6875 176.3125 C-195.72561768 176.4983667 -194.76373535 176.6842334 -193.77270508 176.87573242 C-190.13781315 177.58141455 -186.50618031 178.30282775 -182.87524414 179.02856445 C-181.31584449 179.33807218 -179.75563725 179.64354385 -178.19458008 179.94458008 C-149.15302017 185.55498751 -149.15302017 185.55498751 -141.75 196.0625 C-140.32380457 200.42498014 -140.49074093 203.89995976 -141.6875 208.3125 C-143.47980177 211.32100655 -144.89265267 212.8355916 -147.875 214.625 C-159.70761314 217.51741654 -171.56083501 212.0887337 -182.66894531 208.27294922 C-198.30378212 202.9229161 -214.60823511 200.23326463 -230.3359375 206.6328125 C-250.03120204 216.50339962 -263.67136322 233.64188202 -270.625 254.4375 C-273.83713896 268.00878712 -273.14243564 284.16424491 -265.93359375 296.25390625 C-263.71335201 299.51242388 -261.47688296 302.52311704 -258.6875 305.3125 C-256.73902847 305.40995897 -256.73902847 305.40995897 -254.5625 305.0625 C-253.83804688 304.97484375 -253.11359375 304.8871875 -252.3671875 304.796875 C-249.52127084 304.33073638 -249.52127084 304.33073638 -246.1640625 303.28515625 C-240.56013007 301.85896265 -234.93875403 301.97078039 -229.1875 302 C-228.03491699 302.00563965 -226.88233398 302.0112793 -225.69482422 302.01708984 C-211.95934705 302.21152337 -196.58127567 303.20459675 -185.875 312.96484375 C-183.20723455 316.06460531 -181.77278863 318.44255592 -181.375 322.5 C-181.77055122 327.32572486 -182.907002 329.37346117 -185.6875 333.3125 C-190.5303226 336.47086256 -196.14445207 335.98081074 -201.6875 335.3125 C-204.88991731 334.23988312 -207.85950611 332.97314168 -210.8984375 331.50390625 C-223.02912958 326.32202798 -240.84017889 328.43569528 -252.71533203 333.11083984 C-262.2075432 337.06325005 -270.696575 341.78414031 -278.6875 348.3125 C-279.39003906 348.85261719 -280.09257812 349.39273437 -280.81640625 349.94921875 C-291.59174065 358.65805066 -300.15045747 371.90054686 -303.6875 385.3125 C-305.58817771 404.50532783 -301.88560168 421.11117013 -289.625 436.375 C-260.7892594 467.40898091 -213.58713078 474.37420146 -173.6875 480.0625 C-173.000047 480.16336914 -172.31259399 480.26423828 -171.60430908 480.36816406 C-145.41306086 484.16833679 -119.02992136 484.71934272 -92.61433411 484.69005966 C-90.15039668 484.68746087 -87.68647263 484.68812337 -85.22253418 484.68887329 C-59.56864582 484.6798376 -34.22105254 483.71420734 -8.73687744 480.56243896 C-5.68539031 480.19028422 -2.62964779 479.85755051 0.42578125 479.51953125 C10.70801853 478.33155983 20.81364283 476.54871715 30.9375 474.41015625 C34.94666897 473.57136388 38.9656216 472.8287091 43 472.12109375 C55.42850409 469.93833772 67.4476663 467.67552886 79.3125 463.3125 C79.9401123 463.08449707 80.56772461 462.85649414 81.21435547 462.62158203 C96.02877984 457.18328112 108.19993773 450.52099806 119.3125 439.3125 C120.42431641 438.25095703 120.42431641 438.25095703 121.55859375 437.16796875 C133.55448935 424.93823503 139.27920459 406.9794756 139.75 390.125 C139.40165506 379.67465194 137.24830383 369.55911952 132.3125 360.3125 C131.85359375 359.41402344 131.3946875 358.51554687 130.921875 357.58984375 C118.55496213 334.80710864 97.36929855 319.00026861 72.87841797 311.02685547 C66.69594054 309.30564434 60.31278861 308.37905732 53.99414062 307.29492188 C45.40033966 305.73927776 35.54860113 303.92654665 29.3125 297.3125 C26.76050827 292.88904766 25.66879808 289.24564929 26.53515625 284.2421875 C28.01244032 280.57495971 30.98417358 278.3039831 34.3125 276.3125 C45.31784566 272.7324478 55.72526091 277.04810233 66.12158203 280.57714844 C68.97935245 281.53631988 71.85281136 282.41778742 74.75 283.25 C75.95462891 283.60384766 75.95462891 283.60384766 77.18359375 283.96484375 C79.63490364 284.3651494 80.9872248 284.16584619 83.3125 283.3125 C84.70387869 280.79904171 85.81166489 278.46008495 86.875 275.8125 C87.16568359 275.12929688 87.45636719 274.44609375 87.75585938 273.7421875 C88.64722765 271.61247538 89.48570743 269.46804052 90.3125 267.3125 C90.59859131 266.60150146 90.88468262 265.89050293 91.17944336 265.15795898 C93.41282735 259.18875685 93.79839428 253.71465127 93.75 247.375 C93.76998047 246.45009766 93.78996094 245.52519531 93.81054688 244.57226562 C93.80326703 234.18392936 90.07700118 226.06507439 83.3125 218.3125 C82.68730469 217.59320313 82.06210937 216.87390625 81.41796875 216.1328125 C72.58630701 206.66212514 61.21301213 200.79413734 50.0625 194.5 C16.20980321 175.375009 -16.02487134 151.79772387 -26.9375 112.6875 C-27.53965715 110.2337096 -28.12451205 107.77557229 -28.6875 105.3125 C-28.914375 104.38695313 -29.14125 103.46140625 -29.375 102.5078125 C-33.77521955 81.42342718 -31.28899787 57.74013171 -19.6875 39.3125 C-16.98384162 35.65731137 -13.90463088 32.51065076 -10.6875 29.3125 C-37.29838825 29.3125 -64.02818738 40.36653095 -86.6875 53.3125 Z " fill="#000000" transform="translate(338.6875,-0.3125)"/>
<path d="M0 0 C-0.845625 0.598125 -1.69125 1.19625 -2.5625 1.8125 C-13.60711957 11.16395855 -18.99507682 28.48502385 -20.22094727 42.53173828 C-21.41964161 70.05335315 -15.67997751 98.66828041 3.04492188 119.80371094 C5.30969563 122.25748054 7.6505019 124.62700692 10 127 C11.16789062 128.25876953 11.16789062 128.25876953 12.359375 129.54296875 C28.00649891 146.05646026 48.54191512 157.2827548 68.1875 168.3125 C75.32278346 172.33555082 81.96119354 176.40724174 88 182 C89.175625 183.02287109 89.175625 183.02287109 90.375 184.06640625 C97.77294449 190.86813482 103.82864132 200.15221525 104.34375 210.4375 C104.96075269 226.9093752 101.40788926 239.88144259 93 254 C86.26137773 252.56390017 79.63370443 250.85991713 73 249 C73.66 248.67 74.32 248.34 75 248 C74.64649605 224.41164519 67.53003217 206.85782317 51 190 C50.23429687 189.195625 49.46859375 188.39125 48.6796875 187.5625 C44.01625938 182.74863872 39.04871715 178.50349911 33.8203125 174.31640625 C30.95614967 171.96398442 28.22514219 169.5116339 25.5 167 C22.04898041 163.8211735 18.54808054 160.79348998 14.875 157.875 C-11.80958425 136.23678412 -34.98931322 109.07129982 -39.6015625 73.71484375 C-41.81006862 51.4089319 -40.56739907 27.8262518 -28.74609375 8.15625 C-28.16988281 7.1146875 -27.59367187 6.073125 -27 5 C-27.33 4.34 -27.66 3.68 -28 3 C-4.20963173 -2.10481586 -4.20963173 -2.10481586 0 0 Z " fill="#6B4B32" transform="translate(328,30)"/>
<path d="M0 0 C0.495 0.99 0.495 0.99 1 2 C0.40574219 2.13535156 -0.18851562 2.27070313 -0.80078125 2.41015625 C-15.1529138 6.13769301 -25.79161031 15.42444008 -33.39453125 27.93359375 C-37.43060684 35.64239993 -40.76039746 44.2245571 -41 53 C-41.0928125 54.72089844 -41.0928125 54.72089844 -41.1875 56.4765625 C-41.94019127 75.77805964 -35.80475202 93.38876845 -23 108 C-22.27554688 108.83273437 -21.55109375 109.66546875 -20.8046875 110.5234375 C-11.6455897 120.86235129 -1.6683652 129.84515695 8.96362305 138.62426758 C11.05553621 140.35530611 13.0786652 142.0786652 15 144 C7.86305347 144.57095572 1.95659426 142.73703191 -4.83056641 140.64599609 C-7.21402356 139.93626982 -9.6092405 139.28685893 -12.01171875 138.64453125 C-28.16407373 134.29090882 -42.43689575 129.02237946 -56 119 C-56.87269531 118.37351562 -57.74539062 117.74703125 -58.64453125 117.1015625 C-68.90797614 109.37638892 -76.08030095 99.84196789 -81 88 C-81.3403125 87.18660156 -81.680625 86.37320313 -82.03125 85.53515625 C-86.51916422 72.38307429 -85.6447798 56.80973759 -79.84375 44.3046875 C-76.97751379 39.16732344 -73.72431077 34.54607165 -70 30 C-69.50757813 29.35675781 -69.01515625 28.71351563 -68.5078125 28.05078125 C-57.69040835 14.45263197 -38.07856156 3.27513337 -21 0.26953125 C-14.02360251 -0.35725446 -6.99596774 -0.13717584 0 0 Z " fill="#936747" transform="translate(119,329)"/>
<path d="M0 0 C19.25110615 2.81158767 32.87341042 9.90315132 48 22 C49.07507813 22.82564453 49.07507813 22.82564453 50.171875 23.66796875 C65.15584544 35.8049848 75.87401798 54.88785551 78 74 C79.33976715 91.70249708 74.74046409 110.45278825 63.3515625 124.38671875 C60.71434749 127.41786105 57.89014597 130.21023537 55 133 C53.95779297 134.08861328 53.95779297 134.08861328 52.89453125 135.19921875 C43.38992028 144.55675644 23.69112838 156 10 156 C11.33494075 153.15370156 12.84860851 150.72862683 14.7578125 148.234375 C32.99921588 123.98695483 42.19057018 99.20226504 38.71142578 68.44921875 C34.65945172 42.90818494 18.86792727 22.38881118 1.65234375 3.99609375 C0 2 0 2 0 0 Z " fill="#6B4B32" transform="translate(400,309)"/>
<path d="M0 0 C4.2196672 1.88378 5.60436215 3.30103979 7.875 7.3125 C9.49312024 12.61633855 9.98021034 16.11498011 7.375 21.125 C2.79691603 26.66689113 -2.30343544 29.97868521 -8.6875 33.0625 C-9.74686768 33.57901123 -9.74686768 33.57901123 -10.82763672 34.10595703 C-32.32954645 44.43842492 -57.35760124 46.43081967 -80.1875 38.8125 C-90.71121377 34.74110847 -101.71045723 29.57908554 -107 19 C-107.48645243 14.21655107 -107.55122324 11.22260947 -104.8125 7.1875 C-101.48336094 3.11441925 -98.80450098 1.25778585 -93.5 0.5 C-84.70256672 0.84857754 -76.00910843 5.76714437 -68.4140625 9.88671875 C-58.74026082 14.34793797 -46.73131377 14.58513961 -36.43359375 12.16015625 C-31.76632644 10.42526465 -27.41785923 8.23178487 -23.03515625 5.88671875 C-8.36558822 -1.91172377 -8.36558822 -1.91172377 0 0 Z " fill="#010000" transform="translate(309,363)"/>
<path d="M0 0 C0 1.32 0 2.64 0 4 C-0.82242188 4.27972656 -1.64484375 4.55945313 -2.4921875 4.84765625 C-10.24637294 7.63235795 -16.55123373 10.8877656 -23 16 C-24.01126953 16.74830078 -24.01126953 16.74830078 -25.04296875 17.51171875 C-36.1204492 26.2896823 -46.09484034 41.8239733 -48 56 C-48.76230504 69.20152806 -48.22707372 80.1389072 -42 92 C-42 92.66 -42 93.32 -42 94 C-36.72 94 -31.44 94 -26 94 C-26 94.33 -26 94.66 -26 95 C-26.55236328 95.0093457 -27.10472656 95.01869141 -27.67382812 95.02832031 C-38.82505171 95.26390954 -49.04490178 96.02398075 -59.75 99.2578125 C-63.08817539 100.02013621 -64.81562488 100.20298616 -68 99 C-75.12308399 92.49889008 -79.48749571 82.50605242 -80.140625 72.94042969 C-80.59533724 62.0136946 -80.37555935 52.20100818 -76 42 C-75.50242187 40.83984375 -75.00484375 39.6796875 -74.4921875 38.484375 C-66.34663247 20.98090325 -52.55495011 6.71873558 -34.4375 -0.375 C-23.40792642 -3.78620833 -11.08285516 -2.68094984 0 0 Z " fill="#936747" transform="translate(147,205)"/>
<path d="M0 0 C0.99 0.495 0.99 0.495 2 1 C1.31035156 1.66644531 0.62070313 2.33289062 -0.08984375 3.01953125 C-6.54461433 9.3503419 -12.43078665 15.8613626 -18 23 C-18.47131348 23.59490234 -18.94262695 24.18980469 -19.42822266 24.80273438 C-32.8475781 41.75801069 -44.59524066 59.76903466 -55.49707031 78.42919922 C-56.53337188 80.20182032 -57.57469669 81.97151106 -58.62011719 83.73876953 C-60.25705215 86.50744246 -61.88035116 89.28368585 -63.5 92.0625 C-64.23887451 93.31063477 -64.23887451 93.31063477 -64.99267578 94.58398438 C-69.43198959 102.28186186 -72.8739306 110.35772138 -74.25 119.1875 C-74.39953125 120.10917969 -74.5490625 121.03085938 -74.703125 121.98046875 C-74.80109375 122.64691406 -74.8990625 123.31335938 -75 124 C-74.34 124.33 -73.68 124.66 -73 125 C-80.12579478 125.34591237 -86.55937879 124.03590302 -93.5 122.5 C-94.60859375 122.26152344 -95.7171875 122.02304688 -96.859375 121.77734375 C-99.57458379 121.19216944 -102.28793866 120.59956201 -105 120 C-105.46164557 96.87782608 -93.13680592 78.99795636 -77.73046875 62.81640625 C-76.82941406 61.88699219 -75.92835938 60.95757812 -75 60 C-74.12988281 59.10152344 -73.25976562 58.20304687 -72.36328125 57.27734375 C-68.07451276 52.92289733 -63.69422252 48.74297698 -59.05078125 44.76953125 C-56.72433417 42.76213977 -54.45807314 40.69533362 -52.1875 38.625 C-46.9373707 33.89508168 -41.52322854 29.4065921 -36 25 C-35.06027344 24.24203125 -34.12054688 23.4840625 -33.15234375 22.703125 C-22.84597896 14.56442145 -11.75932674 5.87966337 0 0 Z " fill="#936747" transform="translate(247,56)"/>
<path d="M0 0 C5.69555866 3.24330424 10.69569956 6.74654619 12.75 13.25 C13.73271381 21.50876653 13.47017972 29.19868858 8.75 36.25 C5.23563789 40.60066753 1.68666318 43.88920995 -3.984375 44.5859375 C-10.5147748 44.67052817 -16.06917066 44.57506735 -21.25 40.25 C-26.2566742 34.46103295 -28.85477326 28.51844878 -29.5625 20.875 C-28.98099872 14.12958513 -27.12266235 8.12266235 -22.25 3.25 C-15.25470813 -1.88939811 -8.12169803 -3.92985389 0 0 Z " fill="#020100" transform="translate(315.25,273.75)"/>
<path d="M0 0 C7.61078763 3.2219001 11.9629762 6.8556399 15.65625 14.2421875 C17.71517301 21.20659822 17.20842737 26.78137179 14.21875 33.4296875 C11.09806055 39.12549131 7.86510744 43.00246267 1.65625 45.2421875 C-3.70989766 46.05021746 -8.46286379 45.81000221 -13.65625 44.2421875 C-18.93047886 40.31717998 -23.38455892 35.61422324 -25.34375 29.2421875 C-26.14883837 21.40661817 -26.44715084 13.64003695 -21.34375 7.2421875 C-15.24608587 0.93230769 -8.90544768 -2.87942808 0 0 Z " fill="#010100" transform="translate(217.34375,272.7578125)"/>
</svg>
