<svg xmlns:xlink="http://www.w3.org/1999/xlink" xmlns="http://www.w3.org/2000/svg" width="24" height="24" fill="none" viewBox="0 0 24 24" class="css-cxrvnw"><path fill="#157EFB" fill-rule="evenodd" clip-rule="evenodd" d="M14.684 1.883a.836.836 0 011.024 1.024l-2.149 8.018a.836.836 0 01-1.398.375l-1.487-1.487-7.533 7.533a.836.836 0 01-1.182 0L.245 15.632a.836.836 0 010-1.182l7.533-7.533L6.29 5.43a.836.836 0 01.375-1.398zM9.316 22.117a.836.836 0 01-1.024-1.024l2.149-8.018a.836.836 0 011.398-.375l1.487 1.487 7.533-7.533a.836.836 0 011.182 0l1.714 1.714a.836.836 0 010 1.182l-7.533 7.533 1.487 1.487a.836.836 0 01-.375 1.398z"></path></svg>