<svg width="35" height="45" viewBox="0 0 60 57" fill="none" xmlns="http://www.w3.org/2000/svg">
<path d="M40.3632 33.7824C40.3632 28.0632 36.9525 26.1023 30.131 25.2854C25.2585 24.6316 24.284 23.3245 24.284 21.0365C24.284 18.7485 25.9083 17.2782 29.1565 17.2782C32.08 17.2782 33.7043 18.2586 34.5163 20.7098C34.6788 21.2 35.1661 21.5267 35.6533 21.5267H38.2517C38.9015 21.5267 39.3888 21.0365 39.3888 20.3831V20.2196C38.739 16.6244 35.8155 13.8466 32.08 13.5199V9.59806C32.08 8.9443 31.5928 8.45407 30.7808 8.29053H28.3446C27.6948 8.29053 27.2075 8.78076 27.045 9.59806V13.3564C22.1725 14.0101 19.0869 17.2782 19.0869 21.3635C19.0869 26.7561 22.3351 28.8801 29.1565 29.6974C33.7043 30.5144 35.1661 31.4948 35.1661 34.1095C35.1661 36.7242 32.892 38.5215 29.8063 38.5215C25.5832 38.5215 24.1215 36.7238 23.6343 34.2726C23.4721 33.6193 22.9848 33.2922 22.4976 33.2922H19.7363C19.0869 33.2922 18.5996 33.7824 18.5996 34.4362V34.5997C19.249 38.6847 21.8478 41.6261 27.2075 42.4434V46.3652C27.2075 47.0186 27.6948 47.5088 28.5067 47.6723H30.943C31.5928 47.6723 32.08 47.1821 32.2426 46.3652V42.4434C37.1151 41.6261 40.3632 38.1945 40.3632 33.7824Z" fill="white"/>
<path d="M21.8001 51.5636C9.25952 46.9511 2.82835 32.6186 7.49111 19.9334C9.90275 13.0142 15.2084 7.74268 21.8001 5.27157C22.4433 4.94222 22.7647 4.448 22.7647 3.62403V1.31779C22.7647 0.658698 22.4433 0.164477 21.8001 0C21.6391 0 21.3177 -1.05577e-06 21.1568 0.164476C5.88323 5.1067 -2.47726 21.7458 2.34602 37.396C5.23999 46.6213 12.1535 53.7053 21.1568 56.6707C21.8001 57 22.4433 56.6707 22.6038 56.0116C22.7647 55.8471 22.7647 55.6822 22.7647 55.3529V53.0462C22.7647 52.552 22.2824 51.8933 21.8001 51.5636ZM38.8424 0.164476C38.1992 -0.164874 37.556 0.164477 37.3955 0.823571C37.2346 0.988443 37.2345 1.15292 37.2345 1.48267V3.7889C37.2345 4.448 37.7169 5.1067 38.1992 5.43644C50.7397 10.0489 57.1709 24.3814 52.5081 37.0666C50.0965 43.9858 44.7909 49.2573 38.1992 51.7284C37.556 52.0578 37.2345 52.552 37.2345 53.376V55.6822C37.2345 56.3413 37.556 56.8355 38.1992 57C38.3601 57 38.6815 57 38.8424 56.8355C54.116 51.8933 62.4765 35.2542 57.6532 19.604C54.7593 10.2138 47.6849 3.12981 38.8424 0.164476Z" fill="white"/>
</svg>
