<svg width="35" height="45" viewBox="0 0 54 63" fill="none" xmlns="http://www.w3.org/2000/svg">
<path d="M6.33429 31.0338L6.36703 43.041L16.5695 49.0445V56.0741L0.396218 46.5885V27.5227L6.33429 31.0338ZM6.33429 19.0267V26.0236L0.392578 22.5088V15.5119L6.33429 11.9971L12.3051 15.5119L6.33429 19.0267ZM20.8302 15.5119L26.7719 11.9971L32.7427 15.5119L26.7719 19.0267L20.8302 15.5119Z" fill="white"/>
<path d="M10.6328 40.5522V33.5226L16.5745 37.0374V44.0343L10.6328 40.5522ZM20.8352 51.5624L26.7769 55.0772L32.7478 51.5624V58.5592L26.7769 62.0741L20.8352 58.5592V51.5624ZM41.2692 15.5119L47.2109 11.9971L53.1817 15.5119V22.5088L47.2109 26.0236V19.0267L41.2692 15.5119ZM47.2109 43.0409L47.2436 31.0338L53.1853 27.519V46.5849L37.0121 56.0705V49.0409L47.2109 43.0409Z" fill="white"/>
<path d="M42.9476 40.554L37.0059 44.0361V37.0392L42.9476 33.5244V40.554Z" fill="white"/>
<path d="M42.9502 21.5219L42.9829 28.5515L32.7514 34.5551V46.5913L26.8097 50.0734L20.868 46.5913V34.5551L10.6365 28.5515V21.5219L16.6036 18.0071L26.7733 24.0397L37.0048 18.0071L42.9756 21.5219H42.9502ZM10.6328 9.51838L26.7769 0L42.9502 9.51838L37.0085 13.0332L26.7769 7.00052L16.5745 13.0332L10.6328 9.51838Z" fill="white"/>
</svg>
