<svg width="25" height="25" viewBox="0 0 25 25" fill="none" xmlns="http://www.w3.org/2000/svg">
<path d="M12.5 3.56692L9.88005 6.18687H6.18687V9.88005L3.56692 12.5L6.18687 15.1199V18.8131H9.88005L12.5 21.4331L15.6566 18.2765L20.9596 20.9596L18.2449 15.6881L21.4331 12.5L18.8131 9.88005V6.18687H15.1199L12.5 3.56692ZM12.5 0L16.1616 3.66162H21.3384V8.83838L25 12.5L21.3384 16.1616L24.9684 23.2955L23.2955 24.9684L16.1616 21.3384L12.5 25L8.83838 21.3384H3.66162V16.1616L0 12.5L3.66162 8.83838V3.66162H8.83838L12.5 0Z" fill="#56E5A1"/>
</svg>
