<svg width="29" height="29" viewBox="0 0 29 29" fill="none" xmlns="http://www.w3.org/2000/svg">
<path d="M4.83268 15.7083V18.125H24.166V15.7083H4.83268ZM4.83268 2.41663H24.166C24.8306 2.41663 25.3997 2.65346 25.8734 3.12713C26.3471 3.60079 26.5835 4.16952 26.5827 4.83329V18.125C26.5827 18.7895 26.3459 19.3587 25.8722 19.8323C25.3985 20.306 24.8298 20.5424 24.166 20.5416H19.3327V26.5833L14.4994 24.1666L9.66602 26.5833V20.5416H4.83268C4.1681 20.5416 3.59898 20.3048 3.12531 19.8311C2.65164 19.3575 2.41521 18.7887 2.41602 18.125V4.83329C2.41602 4.16871 2.65285 3.59959 3.12652 3.12592C3.60018 2.65225 4.16891 2.41582 4.83268 2.41663ZM4.83268 12.0833H24.166V4.83329H4.83268V12.0833Z" fill="#56E5A1"/>
</svg>
