<svg width="29" height="29" viewBox="0 0 29 29" fill="none" xmlns="http://www.w3.org/2000/svg">
<path d="M7.23696 5.95592C7.40667 6.12584 7.502 6.35618 7.502 6.59634C7.502 6.83649 7.40667 7.06683 7.23696 7.23675C6.2832 8.19049 5.52662 9.32275 5.01045 10.5689C4.49427 11.815 4.22859 13.1506 4.22859 14.4994C4.22859 15.8483 4.49427 17.1839 5.01045 18.43C5.52662 19.6761 6.2832 20.8084 7.23696 21.7621C7.40197 21.9331 7.4932 22.1621 7.49103 22.3997C7.48885 22.6373 7.39344 22.8646 7.22533 23.0325C7.05722 23.2005 6.82988 23.2957 6.59226 23.2976C6.35464 23.2996 6.12576 23.2081 5.95492 23.043C1.23638 18.3244 1.23638 10.6745 5.95492 5.95592C6.12484 5.78621 6.35518 5.69088 6.59534 5.69088C6.8355 5.69088 7.06704 5.78621 7.23696 5.95592ZM23.0432 5.95592C27.7617 10.6745 27.7617 18.3244 23.0432 23.0442C22.8714 23.2042 22.6442 23.2914 22.4094 23.2873C22.1746 23.2831 21.9506 23.188 21.7845 23.022C21.6185 22.8559 21.5234 22.6319 21.5193 22.3971C21.5151 22.1624 21.6023 21.9351 21.7623 21.7633C22.7163 20.8096 23.473 19.6772 23.9893 18.431C24.5056 17.1847 24.7713 15.849 24.7713 14.5C24.7713 13.1511 24.5056 11.8153 23.9893 10.5691C23.473 9.32285 22.7163 8.19051 21.7623 7.23675C21.6733 7.15379 21.6019 7.05374 21.5524 6.94257C21.5028 6.8314 21.4762 6.7114 21.474 6.58972C21.4719 6.46804 21.4943 6.34717 21.5399 6.23432C21.5854 6.12148 21.6533 6.01897 21.7393 5.93292C21.8254 5.84686 21.9279 5.77902 22.0407 5.73344C22.1536 5.68786 22.2745 5.66547 22.3961 5.66762C22.5178 5.66977 22.6378 5.6964 22.749 5.74593C22.8602 5.79547 22.9602 5.86688 23.0432 5.95592ZM10.6541 9.37309C10.8238 9.54301 10.9192 9.77335 10.9192 10.0135C10.9192 10.2537 10.8238 10.484 10.6541 10.6539C10.149 11.1589 9.74834 11.7584 9.47497 12.4182C9.2016 13.078 9.0609 13.7852 9.0609 14.4994C9.0609 15.2137 9.2016 15.9209 9.47497 16.5807C9.74834 17.2405 10.149 17.84 10.6541 18.345C10.8142 18.5168 10.9014 18.744 10.8972 18.9788C10.8931 19.2135 10.798 19.4375 10.6319 19.6036C10.4659 19.7696 10.2419 19.8647 10.0071 19.8689C9.77231 19.873 9.54509 19.7859 9.3733 19.6258C8.01376 18.2662 7.24999 16.4222 7.24999 14.4994C7.24999 12.5767 8.01376 10.7327 9.3733 9.37309C9.54322 9.20338 9.77356 9.10805 10.0137 9.10805C10.2539 9.10805 10.4842 9.20338 10.6541 9.37309ZM19.626 9.37309C20.9855 10.7327 21.7493 12.5767 21.7493 14.4994C21.7493 16.4222 20.9855 18.2662 19.626 19.6258C19.5424 19.7124 19.4425 19.7815 19.3319 19.829C19.2214 19.8766 19.1025 19.9016 18.9822 19.9027C18.8618 19.9038 18.7425 19.881 18.6311 19.8354C18.5197 19.7899 18.4185 19.7227 18.3333 19.6376C18.2482 19.5526 18.1809 19.4514 18.1353 19.3401C18.0896 19.2287 18.0667 19.1094 18.0676 18.9891C18.0686 18.8687 18.0936 18.7498 18.141 18.6392C18.1885 18.5286 18.2574 18.4286 18.344 18.345C18.8489 17.84 19.2494 17.2406 19.5227 16.5809C19.7959 15.9212 19.9366 15.2141 19.9366 14.5C19.9366 13.786 19.7959 13.0789 19.5227 12.4192C19.2494 11.7595 18.8489 11.16 18.344 10.6551C18.1839 10.4833 18.0967 10.2561 18.1009 10.0213C18.105 9.78655 18.2001 9.56254 18.3662 9.3965C18.5322 9.23046 18.7562 9.13535 18.991 9.13121C19.2258 9.12707 19.453 9.21421 19.6248 9.37429L19.626 9.37309ZM14.499 12.6875C14.9798 12.6875 15.4408 12.8785 15.7807 13.2184C16.1206 13.5583 16.3115 14.0193 16.3115 14.5C16.3115 14.9807 16.1206 15.4418 15.7807 15.7817C15.4408 16.1216 14.9798 16.3125 14.499 16.3125C14.0183 16.3125 13.5573 16.1216 13.2174 15.7817C12.8775 15.4418 12.6865 14.9807 12.6865 14.5C12.6865 14.0193 12.8775 13.5583 13.2174 13.2184C13.5573 12.8785 14.0183 12.6875 14.499 12.6875Z" fill="#56E5A1"/>
</svg>
