<svg width="41" height="17" viewBox="0 0 41 17" fill="none" xmlns="http://www.w3.org/2000/svg">
<g clip-path="url(#clip0_1373_66536)">
<path d="M0 0.0192585C0 0.0192585 1.62519 -0.196187 2.70872 0.812536C3.37745 1.43472 3.57229 2.42661 3.57229 2.42661L5.78492 11.4803L7.62528 4.07031C7.80401 3.28275 8.12737 2.30862 8.63819 1.65025C9.2901 0.811778 10.6136 0.758843 10.7547 0.758843C10.8958 0.758843 12.2186 0.811863 12.8699 1.65025C13.3807 2.30862 13.704 3.28208 13.8835 4.07031L15.7237 11.4803L17.9357 2.42653C17.9357 2.42653 18.1314 1.4348 18.8001 0.812536C19.8836 -0.196271 21.5082 0.0191743 21.5082 0.0191743L17.2711 16.9391C17.2711 16.9391 15.8737 17.0458 15.174 16.6692C14.2553 16.1747 13.8191 15.7933 13.2625 13.4906C12.9813 12.3128 12.7034 11.134 12.4291 9.95441L12.3249 9.51006C12.062 8.38136 11.7976 7.25304 11.5317 6.12512L11.4309 5.7013C11.3382 5.31703 11.2744 5.0585 11.2515 4.98082C11.189 4.76815 11.1144 4.26168 10.7541 4.26168C10.4019 4.26168 10.3205 4.76882 10.2567 4.98082C10.2332 5.0585 10.1694 5.31627 10.0773 5.70122L9.97637 6.12512C9.76179 7.03164 9.54897 7.93862 9.33791 8.84605L9.23445 9.2883C8.90895 10.6903 8.57959 12.0912 8.24636 13.4912C7.68982 15.7933 7.253 16.1755 6.3341 16.6692C5.63446 17.0458 4.23709 16.9391 4.23709 16.9391L0 0.0192585ZM25.5396 2.82569V3.43668H25.541V13.6503C25.5336 15.7462 25.3407 16.2117 24.5019 16.6942C23.8499 17.0692 22.8525 16.9273 22.8525 16.9273V5.48577C22.8525 4.91156 23.0218 4.53503 23.6463 4.19739C24.0193 3.99541 24.3667 3.84064 24.7284 3.61181C25.2224 3.30102 25.4731 2.93156 25.5282 2.84395L25.5396 2.82569ZM26.8853 0.0757288C26.8853 0.0757288 29.0744 -0.33185 30.1585 0.746808C30.7682 1.35359 31.4423 2.38773 31.5949 2.62649L31.6237 2.67168L31.6271 2.67732L33.536 5.68371C33.6281 5.83982 33.749 6.01008 33.9426 6.01008C34.1355 6.01008 34.2572 5.8405 34.3499 5.68371L36.2582 2.67732L36.2615 2.67168L36.2904 2.62649C36.4429 2.38773 37.1171 1.35359 37.7274 0.746135C38.8108 -0.33185 41 0.0750555 41 0.0750555L35.8132 8.50638L40.9859 16.9102C40.9859 16.9102 38.7464 17.2252 37.6622 16.1466C36.9685 15.4572 36.2581 14.3347 36.2581 14.3347L34.3493 11.3291C34.2572 11.1723 34.1355 11.002 33.9426 11.002C33.7491 11.002 33.6281 11.1716 33.5353 11.3291L31.6271 14.3347C31.6271 14.3347 30.9556 15.4572 30.2627 16.1466C29.1785 17.2252 26.8986 16.9102 26.8986 16.9102L32.0714 8.50638L26.8853 0.0757288ZM25.5343 0.000154527H25.541C25.541 1.12333 25.4401 1.79088 24.7949 2.30938C24.4954 2.55127 24.1651 2.74787 23.8136 2.89344C23.4572 3.03958 23.1309 3.25641 22.8525 3.53212C22.8525 1.48639 23.1367 0.745377 23.901 0.306744C24.3762 0.0340704 25.1565 0.00293176 25.4368 0.000154527H25.5343Z" fill="#56E5A1"/>
</g>
<defs>
<clipPath id="clip0_1373_66536">
<rect width="41" height="17" fill="white"/>
</clipPath>
</defs>
</svg>
