<svg width="29" height="29" viewBox="0 0 29 29" fill="none" xmlns="http://www.w3.org/2000/svg">
<path d="M15.5799 21.111C15.7497 21.281 15.8451 21.5114 15.8451 21.7516C15.8451 21.9919 15.7497 22.2223 15.5799 22.3922L14.4539 23.525C13.2631 24.7151 11.6483 25.3834 9.96482 25.3828C8.28131 25.3823 6.66696 24.713 5.47692 23.5222C4.28687 22.3314 3.61861 20.7167 3.61914 19.0331C3.61967 17.3496 4.28895 15.7353 5.47975 14.5452L8.21209 11.8129C9.35588 10.6682 10.8939 10.0039 12.5114 9.95586C14.1289 9.90785 15.7036 10.4798 16.9132 11.5546C17.0025 11.6338 17.0753 11.7297 17.1275 11.837C17.1796 11.9443 17.2102 12.0608 17.2173 12.1798C17.2245 12.2989 17.2081 12.4182 17.1691 12.531C17.1302 12.6437 17.0694 12.7477 16.9903 12.837C16.9111 12.9262 16.8152 12.999 16.7079 13.0512C16.6006 13.1034 16.4841 13.1339 16.365 13.1411C16.246 13.1482 16.1266 13.1318 16.0139 13.0929C15.9011 13.0539 15.7972 12.9931 15.7079 12.914C14.8439 12.1467 13.7195 11.7385 12.5645 11.7729C11.4096 11.8072 10.3113 12.2814 9.49444 13.0986L6.76209 15.8276C5.91215 16.6775 5.43465 17.8303 5.43465 19.0323C5.43465 20.2343 5.91215 21.3871 6.76209 22.237C7.61204 23.087 8.76481 23.5645 9.96682 23.5645C11.1688 23.5645 12.3216 23.087 13.1715 22.237L14.2976 21.111C14.3817 21.0268 14.4817 20.9599 14.5917 20.9143C14.7017 20.8687 14.8196 20.8452 14.9387 20.8452C15.0578 20.8452 15.1758 20.8687 15.2858 20.9143C15.3958 20.9599 15.4957 21.0268 15.5799 21.111ZM23.5187 5.47821C22.3277 4.28991 20.714 3.62256 19.0316 3.62256C17.3492 3.62256 15.7355 4.28991 14.5445 5.47821L13.4185 6.60536C13.2486 6.77541 13.1532 7.00599 13.1533 7.24637C13.1534 7.48675 13.249 7.71724 13.4191 7.88714C13.5891 8.05704 13.8197 8.15243 14.0601 8.15232C14.3005 8.15221 14.5309 8.05662 14.7008 7.88657L15.8269 6.76056C16.6768 5.91061 17.8296 5.43312 19.0316 5.43312C20.2336 5.43312 21.3864 5.91061 22.2363 6.76056C23.0863 7.6105 23.5638 8.76328 23.5638 9.96528C23.5638 11.1673 23.0863 12.3201 22.2363 13.17L19.504 15.9046C18.6866 16.7213 17.5882 17.195 16.4332 17.2287C15.2782 17.2624 14.154 16.8536 13.2905 16.0859C13.1102 15.926 12.8739 15.8444 12.6334 15.8588C12.3929 15.8732 12.168 15.9826 12.0081 16.1629C11.8483 16.3432 11.7666 16.5795 11.7811 16.82C11.7955 17.0605 11.9049 17.2854 12.0852 17.4452C13.2946 18.5204 14.8691 19.0927 16.4866 19.0451C18.1041 18.9975 19.6422 18.3336 20.7863 17.1892L23.5187 14.4569C24.7076 13.2658 25.3754 11.6516 25.3754 9.96868C25.3754 8.28573 24.7076 6.67154 23.5187 5.48048V5.47821Z" fill="#56E5A1"/>
</svg>
