<svg width="18" height="21" viewBox="0 0 18 21" fill="none" xmlns="http://www.w3.org/2000/svg">
<path d="M12.283 2.45048C12.283 2.45048 12.0566 2.52048 11.6717 2.64881C11.6038 2.43882 11.5132 2.17049 11.3774 1.91383C10.9472 1.06219 10.3132 0.618864 9.5434 0.607197C9.48679 0.607197 9.44151 0.607197 9.3849 0.618864C9.36226 0.595531 9.33962 0.560532 9.31698 0.537199C8.98868 0.163876 8.55849 -0.0111199 8.04906 0.000546505C7.06415 0.0355456 6.07925 0.770527 5.27547 2.07716C4.70943 2.9988 4.29057 4.15377 4.16604 5.04041C3.03396 5.40207 2.24151 5.65873 2.21887 5.65873C1.64151 5.84539 1.63019 5.86873 1.55094 6.41705C1.49434 6.83703 0 18.7834 0 18.7834L12.4302 21V2.42715C12.3736 2.42715 12.317 2.43882 12.283 2.45048ZM9.40755 3.37213C8.75094 3.58212 8.02641 3.81545 7.31321 4.03711C7.51698 3.23213 7.90189 2.43882 8.37736 1.91383C8.55849 1.7155 8.79623 1.50551 9.09057 1.37718C9.36226 1.97216 9.41887 2.80047 9.40755 3.37213ZM8.06038 0.677195C8.28679 0.677195 8.49057 0.723861 8.66038 0.840525C8.38868 0.980521 8.13962 1.19052 7.89057 1.45884C7.26792 2.14716 6.78113 3.23213 6.58868 4.27043C5.98868 4.4571 5.41132 4.64376 4.86792 4.81875C5.20755 3.1738 6.5434 0.723861 8.06038 0.677195ZM6.13585 9.99862C6.20377 11.0836 8.98868 11.3286 9.14717 13.8835C9.2717 15.8901 8.11698 17.2668 6.44151 17.3718C4.44906 17.5001 3.33962 16.2868 3.33962 16.2868L3.75849 14.4318C3.75849 14.4318 4.86792 15.2951 5.75094 15.2368C6.3283 15.2018 6.53208 14.7118 6.52075 14.3735C6.43019 12.9502 4.16604 13.0319 4.03019 10.6986C3.90566 8.72698 5.16226 6.7437 7.92453 6.55704C9 6.48704 9.5434 6.76704 9.5434 6.76704L8.90943 9.20531C8.90943 9.20531 8.20755 8.87865 7.36981 8.92531C6.14717 9.00698 6.12453 9.80029 6.13585 9.99862ZM10.0641 3.16213C10.0528 2.64881 9.99623 1.9255 9.75849 1.30718C10.5057 1.45884 10.8792 2.32215 11.0377 2.84714C10.7547 2.94047 10.4264 3.04547 10.0641 3.16213ZM12.8377 20.9533L18 19.635C18 19.635 15.7811 4.16544 15.7698 4.06044C15.7585 3.95544 15.6679 3.89711 15.5887 3.88545C15.5094 3.87378 14.0604 3.85045 14.0604 3.85045C14.0604 3.85045 13.1774 2.9638 12.8377 2.62548V20.9533Z" fill="#56E5A1"/>
</svg>
