<svg width="24" height="23" viewBox="0 0 24 23" fill="none" xmlns="http://www.w3.org/2000/svg">
<path d="M14.1817 18.7623C12.9851 18.1614 11.9565 17.2443 11.1959 16.1H2.1818V2.3H21.818V4.9036C22.7019 5.55709 23.4453 6.39955 23.9998 7.3761V2.3C23.9981 1.69056 23.7676 1.1066 23.3588 0.675665C22.9501 0.244725 22.3961 0.00182014 21.818 0H2.1818C1.60368 0.00182014 1.04973 0.244725 0.640941 0.675665C0.232149 1.1066 0.0017266 1.69056 0 2.3V16.1C0.0017266 16.7094 0.232149 17.2934 0.640941 17.7243C1.04973 18.1553 1.60368 18.3982 2.1818 18.4H9.81809V20.7H7.6363V23H16.3635V20.7H14.1817V18.7623Z" fill="#56E5A1"/>
<path d="M17.4556 4.6001C16.161 4.6001 14.8955 5.00478 13.8191 5.76296C12.7427 6.52114 11.9038 7.59877 11.4084 8.85958C10.913 10.1204 10.7834 11.5078 11.0359 12.8462C11.2885 14.1847 11.9119 15.4142 12.8273 16.3791C13.7427 17.3441 14.9089 18.0013 16.1786 18.2675C17.4483 18.5338 18.7644 18.3971 19.9604 17.8749C21.1564 17.3526 22.1786 16.4682 22.8979 15.3335C23.6171 14.1988 24.0009 12.8648 24.0009 11.5001C24.0012 10.5939 23.8321 9.69651 23.5033 8.85922C23.1745 8.02194 22.6923 7.26117 22.0845 6.62039C21.4766 5.9796 20.755 5.47136 19.9607 5.12471C19.1665 4.77806 18.3152 4.5998 17.4556 4.6001ZM17.4556 16.1001C16.5925 16.1001 15.7489 15.8303 15.0313 15.3249C14.3137 14.8194 13.7544 14.101 13.4241 13.2604C13.0938 12.4199 13.0074 11.495 13.1758 10.6027C13.3442 9.71037 13.7598 8.89073 14.37 8.24741C14.9803 7.60408 15.7578 7.16598 16.6043 6.98849C17.4507 6.81099 18.3281 6.90209 19.1254 7.25025C19.9228 7.59841 20.6043 8.18801 21.0838 8.94448C21.5632 9.70094 21.8192 10.5903 21.8192 11.5001C21.8177 12.7196 21.3575 13.8888 20.5395 14.7511C19.7215 15.6134 18.6124 16.0986 17.4556 16.1001Z" fill="#56E5A1"/>
<path d="M17.4542 12.6501C18.0567 12.6501 18.5451 12.1352 18.5451 11.5001C18.5451 10.865 18.0567 10.3501 17.4542 10.3501C16.8517 10.3501 16.3633 10.865 16.3633 11.5001C16.3633 12.1352 16.8517 12.6501 17.4542 12.6501Z" fill="#56E5A1"/>
</svg>
