<svg width="29" height="29" viewBox="0 0 29 29" fill="none" xmlns="http://www.w3.org/2000/svg">
<path d="M11.0449 17.9551C11.7836 18.6898 12.3691 19.5637 12.7678 20.5262C13.1664 21.4887 13.3701 22.5207 13.3672 23.5625C13.3672 23.7428 13.2956 23.9157 13.1681 24.0431C13.0406 24.1706 12.8678 24.2422 12.6875 24.2422C12.5072 24.2422 12.3344 24.1706 12.2069 24.0431C12.0794 23.9157 12.0078 23.7428 12.0078 23.5625C12.0078 21.82 11.3156 20.1488 10.0834 18.9166C8.85124 17.6844 7.18006 16.9922 5.4375 16.9922C5.25724 16.9922 5.08436 16.9206 4.95689 16.7931C4.82942 16.6657 4.75781 16.4928 4.75781 16.3125C4.75781 16.1322 4.82942 15.9594 4.95689 15.8319C5.08436 15.7044 5.25724 15.6328 5.4375 15.6328C6.47929 15.6299 7.51132 15.8336 8.47384 16.2322C9.43636 16.6309 10.3102 17.2164 11.0449 17.9551ZM5.4375 10.1953C5.25724 10.1953 5.08436 10.2669 4.95689 10.3944C4.82942 10.5219 4.75781 10.6947 4.75781 10.875C4.75781 11.0553 4.82942 11.2282 4.95689 11.3556C5.08436 11.4831 5.25724 11.5547 5.4375 11.5547C8.62217 11.5547 11.6764 12.8198 13.9283 15.0717C16.1802 17.3236 17.4453 20.3778 17.4453 23.5625C17.4453 23.7428 17.5169 23.9157 17.6444 24.0431C17.7719 24.1706 17.9447 24.2422 18.125 24.2422C18.3053 24.2422 18.4781 24.1706 18.6056 24.0431C18.7331 23.9157 18.8047 23.7428 18.8047 23.5625C18.8047 20.0173 17.3964 16.6173 14.8895 14.1105C12.3827 11.6036 8.9827 10.1953 5.4375 10.1953ZM18.7345 10.2656C16.9923 8.51394 14.9201 7.12524 12.6376 6.17984C10.3552 5.23444 7.90796 4.75111 5.4375 4.75782C5.25724 4.75782 5.08436 4.82943 4.95689 4.9569C4.82942 5.08436 4.75781 5.25724 4.75781 5.43751C4.75781 5.61777 4.82942 5.79065 4.95689 5.91812C5.08436 6.04559 5.25724 6.1172 5.4375 6.1172C7.72932 6.11112 9.99959 6.55964 12.1169 7.43678C14.2342 8.31393 16.1566 9.6023 17.7727 11.2273C19.3977 12.8434 20.6861 14.7658 21.5632 16.8831C22.4404 19.0004 22.8889 21.2707 22.8828 23.5625C22.8828 23.7428 22.9544 23.9157 23.0819 24.0431C23.2094 24.1706 23.3822 24.2422 23.5625 24.2422C23.7428 24.2422 23.9156 24.1706 24.0431 24.0431C24.1706 23.9157 24.2422 23.7428 24.2422 23.5625C24.2489 21.092 23.7656 18.6448 22.8202 16.3624C21.8748 14.0799 20.4861 12.0077 18.7345 10.2656ZM5.89063 21.9766C5.66658 21.9766 5.44756 22.043 5.26127 22.1675C5.07498 22.292 4.92978 22.4689 4.84404 22.6759C4.7583 22.8829 4.73587 23.1106 4.77958 23.3304C4.82329 23.5501 4.93118 23.752 5.08961 23.9104C5.24803 24.0688 5.44988 24.1767 5.66962 24.2204C5.88937 24.2641 6.11714 24.2417 6.32413 24.156C6.53113 24.0702 6.70805 23.925 6.83253 23.7387C6.957 23.5525 7.02344 23.3334 7.02344 23.1094C7.02344 22.8089 6.90409 22.5208 6.69165 22.3084C6.4792 22.0959 6.19107 21.9766 5.89063 21.9766Z" fill="#56E5A1"/>
</svg>
