<svg width="29" height="29" viewBox="0 0 29 29" fill="none" xmlns="http://www.w3.org/2000/svg">
<path d="M2.552 2.465L0.203005 4.176L3.5235 8.7C4.40435 8.2373 5.33961 7.88658 6.3075 7.656M13.05 10.15V13.05H23.2V13.4705L15.95 15.5295V19.575C15.95 20.8655 15.5673 22.1271 14.8503 23.2001C14.1334 24.2731 13.1143 25.1094 11.922 25.6033C10.7297 26.0972 9.41776 26.2264 8.15204 25.9746C6.88631 25.7229 5.72367 25.1014 4.81113 24.1889C3.89859 23.2763 3.27715 22.1137 3.02538 20.848C2.77361 19.5822 2.90283 18.2703 3.39669 17.078C3.89055 15.8857 4.72688 14.8666 5.79991 14.1497C6.87294 13.4327 8.13448 13.05 9.425 13.05H10.15V10.15H9.425C7.56091 10.15 5.73869 10.7028 4.18875 11.7384C2.63882 12.774 1.4308 14.246 0.717439 15.9682C0.00408371 17.6904 -0.182563 19.5855 0.181103 21.4137C0.544769 23.242 1.44241 24.9214 2.76052 26.2395C4.07863 27.5576 5.75801 28.4552 7.58628 28.8189C9.41455 29.1826 11.3096 28.9959 13.0318 28.2826C14.754 27.5692 16.226 26.3612 17.2616 24.8112C18.2972 23.2613 18.85 21.4391 18.85 19.575V17.2695L29 14.5V10.15M20.648 2.465L17.1825 7.25H20.764L22.997 4.176M10.15 0V7.25H13.05V0H10.15Z" fill="#56E5A1"/>
</svg>
