<svg width="29" height="29" viewBox="0 0 29 29" fill="none" xmlns="http://www.w3.org/2000/svg">
<path d="M26.5827 4.53125H2.41602C1.9206 4.53125 1.50977 4.12042 1.50977 3.625C1.50977 3.12958 1.9206 2.71875 2.41602 2.71875H26.5827C27.0781 2.71875 27.4889 3.12958 27.4889 3.625C27.4889 4.12042 27.0781 4.53125 26.5827 4.53125Z" fill="#56E5A1"/>
<path d="M13.291 11.7812H2.41602C1.9206 11.7812 1.50977 11.3704 1.50977 10.875C1.50977 10.3796 1.9206 9.96875 2.41602 9.96875H13.291C13.7864 9.96875 14.1973 10.3796 14.1973 10.875C14.1973 11.3704 13.7864 11.7812 13.291 11.7812Z" fill="#56E5A1"/>
<path d="M9.66602 19.0312H2.41602C1.9206 19.0312 1.50977 18.6204 1.50977 18.125C1.50977 17.6296 1.9206 17.2188 2.41602 17.2188H9.66602C10.1614 17.2188 10.5723 17.6296 10.5723 18.125C10.5723 18.6204 10.1614 19.0312 9.66602 19.0312Z" fill="#56E5A1"/>
<path d="M7.24935 26.2812H2.41602C1.9206 26.2812 1.50977 25.8704 1.50977 25.375C1.50977 24.8796 1.9206 24.4688 2.41602 24.4688H7.24935C7.74477 24.4688 8.1556 24.8796 8.1556 25.375C8.1556 25.8704 7.74477 26.2812 7.24935 26.2812Z" fill="#56E5A1"/>
<path d="M26.4135 9.28C25.7006 8.73625 24.7219 8.62754 23.574 8.94171L18.3177 10.3675C16.904 10.7542 16.034 11.9021 16.034 13.3521V16.4333V20.88C15.5265 20.59 14.9344 20.4088 14.306 20.4088C12.3606 20.4088 10.7656 21.9917 10.7656 23.9492C10.7656 25.8946 12.3485 27.4896 14.306 27.4896C16.2635 27.4896 17.8465 25.9067 17.8465 23.9492V13.4971L25.6765 11.3584V19.1279C25.169 18.8379 24.5769 18.6567 23.9485 18.6567C22.0031 18.6567 20.4081 20.2396 20.4081 22.1971C20.4081 24.1425 21.991 25.7375 23.9485 25.7375C25.906 25.7375 27.489 24.1546 27.489 22.1971V13.7992V11.9263C27.489 10.7058 27.1265 9.81167 26.4135 9.28ZM14.306 25.6771C13.3515 25.6771 12.5781 24.9038 12.5781 23.9492C12.5781 22.9946 13.3515 22.2213 14.306 22.2213C15.2606 22.2213 16.034 22.9946 16.034 23.9492C16.034 24.9038 15.2606 25.6771 14.306 25.6771ZM23.9485 23.925C22.994 23.925 22.2206 23.1517 22.2206 22.1971C22.2206 21.2425 22.994 20.4692 23.9485 20.4692C24.9031 20.4692 25.6765 21.2425 25.6765 22.1971C25.6765 23.1517 24.9031 23.925 23.9485 23.925Z" fill="#56E5A1"/>
</svg>
