<svg width="28" height="27" viewBox="0 0 28 27" fill="none" xmlns="http://www.w3.org/2000/svg">
<path d="M11.0117 17.2761L12.8341 15.6593L14.5875 17.2761L16.4545 15.6593L18.1626 17.2761L20.075 15.6593M8.1124 2.82617H6.72768C6.41192 2.82617 6.1091 2.95161 5.88582 3.17488C5.66254 3.39816 5.53711 3.70099 5.53711 4.01675V24.8545C5.53711 25.1703 5.66254 25.4731 5.88582 25.6964C6.1091 25.9196 6.41192 26.0451 6.72768 26.0451H8.1124M10.9529 11.5113L10.9603 6.51222H20.0046V11.5106L10.9529 11.5113Z" stroke="#56E5A1" stroke-linecap="round" stroke-linejoin="round"/>
<path d="M8.11233 2.82617V26.0451H21.6551C21.9709 26.0451 22.2737 25.9196 22.497 25.6964C22.7203 25.4731 22.8457 25.1703 22.8457 24.8545V4.01742C22.8457 3.70166 22.7203 3.39884 22.497 3.17556C22.2737 2.95228 21.9709 2.82685 21.6551 2.82685L8.11233 2.82617ZM3.49209 9.63748H3.94802V17.9093H3.49209C2.83126 17.9093 2.19749 17.6468 1.73015 17.1796C1.26282 16.7124 1.00018 16.0787 1 15.4178V12.1302C1 11.4693 1.26256 10.8354 1.72992 10.3681C2.19727 9.90071 2.83115 9.63748 3.49209 9.63748Z" stroke="#56E5A1" stroke-linecap="round" stroke-linejoin="round"/>
<path d="M3.94727 9.63748V2.85526C3.94727 2.3513 4.14746 1.86798 4.50382 1.51163C4.86017 1.15528 5.34349 0.955078 5.84745 0.955078H14.1903H22.5331C23.037 0.955078 23.5204 1.15528 23.8767 1.51163C24.2331 1.86798 24.4333 2.3513 24.4333 2.85526V9.63816M24.4333 9.63816V17.9106H24.8892V17.9093C25.2165 17.9093 25.5405 17.8448 25.8429 17.7196C26.1452 17.5943 26.42 17.4108 26.6514 17.1794C26.8828 16.9479 27.0664 16.6732 27.1916 16.3709C27.3168 16.0685 27.3813 15.7444 27.3813 15.4172V12.1296C27.3811 11.4687 27.1185 10.835 26.6511 10.3678C26.1838 9.90062 25.55 9.63816 24.8892 9.63816H24.4333Z" stroke="#56E5A1" stroke-linecap="round" stroke-linejoin="round"/>
</svg>
