<svg width="29" height="29" viewBox="0 0 29 29" fill="none" xmlns="http://www.w3.org/2000/svg">
<path d="M14.4993 2.41669C7.84143 2.41669 2.41602 7.8421 2.41602 14.5C2.41602 21.1579 7.84143 26.5834 14.4993 26.5834C21.1573 26.5834 26.5827 21.1579 26.5827 14.5C26.5827 7.8421 21.1573 2.41669 14.4993 2.41669ZM3.63643 14.5C3.63643 12.9292 3.97477 11.4309 4.57893 10.0775L9.76268 24.2754C6.13768 22.5113 3.63643 18.8017 3.63643 14.5ZM14.4993 25.3629C13.436 25.3629 12.4089 25.2059 11.4302 24.9159L14.6927 15.4425L18.0277 24.5896C18.0518 24.6379 18.076 24.6984 18.1002 24.7346C16.9764 25.1454 15.7681 25.3629 14.4993 25.3629ZM15.9977 9.40085C16.6502 9.3646 17.2423 9.2921 17.2423 9.2921C17.8223 9.2196 17.7618 8.36169 17.1698 8.39794C17.1698 8.39794 15.4056 8.53085 14.2698 8.53085C13.2064 8.53085 11.406 8.39794 11.406 8.39794C10.826 8.37377 10.7535 9.26794 11.3456 9.30419C11.3456 9.30419 11.9014 9.37669 12.4814 9.41294L14.1731 14.0529L11.7927 21.1821L7.84143 9.40085C8.49393 9.37669 9.08602 9.30419 9.08602 9.30419C9.66602 9.23169 9.6056 8.37377 9.01352 8.41002C9.01352 8.41002 7.24935 8.54294 6.11352 8.54294C5.9081 8.54294 5.66643 8.54294 5.41268 8.53085C7.37018 5.58252 10.7052 3.6371 14.4993 3.6371C17.3268 3.6371 19.9006 4.71252 21.8339 6.48877C21.7856 6.48877 21.7373 6.47669 21.6889 6.47669C20.6256 6.47669 19.8643 7.4071 19.8643 8.41002C19.8643 9.30419 20.3839 10.0654 20.9277 10.9596C21.3385 11.6846 21.8218 12.615 21.8218 13.9563C21.8218 14.8867 21.4593 15.9621 21.0002 17.4725L19.9127 21.0975L15.9977 9.40085ZM24.0331 9.2921C25.3903 11.776 25.7242 14.6916 24.9636 17.418C24.203 20.1444 22.408 22.4662 19.961 23.8888L23.2839 14.2946C23.9002 12.7479 24.1056 11.5034 24.1056 10.4038C24.1056 10.005 24.0814 9.63044 24.0331 9.2921Z" fill="#56E5A1"/>
</svg>
