<svg width="29" height="29" viewBox="0 0 29 29" fill="none" xmlns="http://www.w3.org/2000/svg">
<path d="M16.1575 2.53026C13.2674 2.13423 10.3315 2.79684 7.89152 4.39582C5.45158 5.9948 3.67226 8.42226 2.88184 11.2303C2.09142 14.0384 2.34323 17.0376 3.59082 19.6745C4.83842 22.3115 6.9976 24.4083 9.67 25.578C9.59738 24.6502 9.66336 23.7168 9.86575 22.8085C10.0893 21.7947 11.4317 16.2074 11.4317 16.2074C11.1644 15.6082 11.0308 14.9579 11.0402 14.3018C11.0402 12.5075 12.0758 11.1686 13.3639 11.1686C13.5953 11.1653 13.8247 11.2118 14.0365 11.305C14.2483 11.3982 14.4376 11.5359 14.5915 11.7088C14.7453 11.8817 14.8601 12.0857 14.9281 12.3069C14.9961 12.5281 15.0157 12.7614 14.9855 12.9908C14.9855 14.0783 14.287 15.7241 13.9221 17.2683C13.85 17.5515 13.8454 17.8477 13.9088 18.133C13.9721 18.4183 14.1016 18.6847 14.2867 18.9108C14.4719 19.1369 14.7076 19.3164 14.9749 19.4347C15.2421 19.553 15.5334 19.6068 15.8252 19.5919C18.1175 19.5919 19.6557 16.6545 19.6557 13.1866C19.6557 10.527 17.8951 8.53689 14.6495 8.53689C13.873 8.50671 13.0985 8.63467 12.373 8.91299C11.6474 9.1913 10.986 9.61417 10.4289 10.1559C9.87177 10.6977 9.43057 11.347 9.13207 12.0645C8.83358 12.7819 8.68401 13.5526 8.69245 14.3296C8.65786 15.1916 8.93594 16.037 9.47545 16.7101C9.57627 16.7853 9.64988 16.8913 9.68519 17.0121C9.7205 17.1328 9.71559 17.2618 9.6712 17.3795C9.61562 17.6018 9.47545 18.1323 9.41987 18.328C9.40815 18.3939 9.38114 18.4561 9.34101 18.5096C9.30089 18.5631 9.24876 18.6065 9.18883 18.6363C9.1289 18.666 9.06283 18.6812 8.99592 18.6808C8.92902 18.6804 8.86316 18.6642 8.80362 18.6337C7.13129 17.9643 6.34346 16.124 6.34346 14.0227C6.34346 10.5826 9.22412 6.4646 14.9879 6.4646C19.5747 6.4646 22.6233 9.82014 22.6233 13.4089C22.6233 18.1323 19.994 21.6836 16.1068 21.6836C15.5258 21.7021 14.9495 21.5739 14.4312 21.3107C13.9129 21.0476 13.4694 20.658 13.1415 20.178C13.1415 20.178 12.4419 22.9765 12.3054 23.5057C12.0242 24.4201 11.6093 25.2878 11.0741 26.0807C12.1894 26.419 13.3482 26.5882 14.513 26.5833C16.1001 26.5846 17.6719 26.2728 19.1384 25.6658C20.6049 25.0588 21.9372 24.1685 23.0592 23.0459C24.1811 21.9233 25.0706 20.5904 25.6767 19.1236C26.2829 17.6567 26.5937 16.0847 26.5915 14.4976C26.5903 11.5793 25.5331 8.75992 23.6153 6.56024C21.6975 4.36056 19.0485 2.92912 16.1575 2.53026Z" fill="#56E5A1"/>
</svg>
