<svg width="48" height="48" viewBox="0 0 48 48" fill="none" xmlns="http://www.w3.org/2000/svg">
<path d="M15.072 32.904C14.016 32.904 13.24 32.64 12.744 32.112C12.248 31.584 12 30.84 12 29.88V15.144H15.072V30.456H16.728V32.904H15.072Z" fill="white"/>
<path d="M24.1187 33.192C23.1907 33.192 22.3587 33.04 21.6227 32.736C20.9027 32.416 20.2867 31.976 19.7747 31.416C19.2787 30.84 18.8947 30.152 18.6227 29.352C18.3507 28.536 18.2147 27.624 18.2147 26.616C18.2147 25.624 18.3427 24.728 18.5987 23.928C18.8707 23.128 19.2547 22.448 19.7507 21.888C20.2467 21.312 20.8547 20.872 21.5747 20.568C22.2947 20.248 23.1107 20.088 24.0227 20.088C24.9987 20.088 25.8467 20.256 26.5667 20.592C27.2867 20.928 27.8787 21.384 28.3427 21.96C28.8067 22.536 29.1507 23.208 29.3747 23.976C29.6147 24.728 29.7347 25.536 29.7347 26.4V27.408H21.4067V27.72C21.4067 28.632 21.6627 29.368 22.1747 29.928C22.6867 30.472 23.4467 30.744 24.4547 30.744C25.2227 30.744 25.8467 30.584 26.3267 30.264C26.8227 29.944 27.2627 29.536 27.6467 29.04L29.3027 30.888C28.7907 31.608 28.0867 32.176 27.1907 32.592C26.3107 32.992 25.2867 33.192 24.1187 33.192ZM24.0707 22.392C23.2547 22.392 22.6067 22.664 22.1267 23.208C21.6467 23.752 21.4067 24.456 21.4067 25.32V25.512H26.5427V25.296C26.5427 24.432 26.3267 23.736 25.8947 23.208C25.4787 22.664 24.8707 22.392 24.0707 22.392Z" fill="white"/>
<path d="M33.9735 18.552C33.3335 18.552 32.8695 18.408 32.5815 18.12C32.3095 17.832 32.1735 17.464 32.1735 17.016V16.536C32.1735 16.088 32.3095 15.72 32.5815 15.432C32.8695 15.144 33.3335 15 33.9735 15C34.5975 15 35.0535 15.144 35.3415 15.432C35.6295 15.72 35.7735 16.088 35.7735 16.536V17.016C35.7735 17.464 35.6295 17.832 35.3415 18.12C35.0535 18.408 34.5975 18.552 33.9735 18.552ZM32.4375 20.376H35.5095V32.904H32.4375V20.376Z" fill="white"/>
</svg>
