<svg width="48" height="48" viewBox="0 0 48 48" fill="none" xmlns="http://www.w3.org/2000/svg">
<path d="M7 26.296H8.2C8.40267 26.072 8.584 25.8 8.744 25.48C8.91467 25.16 9.05867 24.7707 9.176 24.312C9.29333 23.8427 9.384 23.2933 9.448 22.664C9.52267 22.0347 9.56 21.304 9.56 20.472V17H17.192V26.296H18.92V30.568H16.936V28.168H8.984V30.568H7V26.296ZM15.08 26.296V18.872H11.608V20.744C11.608 21.512 11.5813 22.1893 11.528 22.776C11.4853 23.352 11.4213 23.8587 11.336 24.296C11.2507 24.7333 11.144 25.112 11.016 25.432C10.8987 25.7413 10.76 26.008 10.6 26.232V26.296H15.08Z" fill="white"/>
<path d="M20.569 19.816H22.569V23.544L22.393 25.496H22.457L23.433 23.72L26.041 19.816H27.881V28.168H25.881V24.44L26.057 22.472H25.993L25.017 24.264L22.409 28.168H20.569V19.816Z" fill="white"/>
<path d="M30.2565 19.816H32.3045V23.096H35.5205V19.816H37.5685V28.168H35.5205V24.728H32.3045V28.168H30.2565V19.816Z" fill="white"/>
<path d="M41.144 28.344C40.7067 28.344 40.3813 28.2373 40.168 28.024C39.9653 27.8 39.864 27.5173 39.864 27.176V26.888C39.864 26.5467 39.9653 26.264 40.168 26.04C40.3813 25.816 40.7067 25.704 41.144 25.704C41.592 25.704 41.9173 25.816 42.12 26.04C42.3227 26.264 42.424 26.5467 42.424 26.888V27.176C42.424 27.5173 42.3227 27.8 42.12 28.024C41.9173 28.2373 41.592 28.344 41.144 28.344Z" fill="white"/>
</svg>
