<svg width="48" height="48" viewBox="0 0 48 48" fill="none" xmlns="http://www.w3.org/2000/svg">
<path d="M22.104 30.408V33.544H18.408V30.408H16V27.776H18.408V25.368H16V22.708H18.408V14H26.836C28.6467 14 30.056 14.4947 31.064 15.484C32.0907 16.4733 32.604 17.8733 32.604 19.684C32.604 21.476 32.0907 22.876 31.064 23.884C30.056 24.8733 28.6467 25.368 26.836 25.368H22.104V27.776H28.6V30.408H22.104ZM22.104 22.708H26.472C27.2 22.708 27.76 22.512 28.152 22.12C28.5627 21.728 28.768 21.1773 28.768 20.468V19.152C28.768 18.4427 28.5627 17.92 28.152 17.584C27.7413 17.2293 27.1813 17.052 26.472 17.052H22.104V22.708Z" fill="white"/>
</svg>
