<svg width="48" height="48" viewBox="0 0 48 48" fill="none" xmlns="http://www.w3.org/2000/svg">
<path d="M20.1079 28.9245C20.1079 30.2159 19.4415 31.3606 18.1087 32.3585C16.7759 33.3564 15.2557 33.8553 13.5481 33.8553C12.1237 33.8553 11.0075 33.4948 10.1995 32.7736C9.39983 32.044 9 31.0294 9 29.7296C9 28.5136 9.14994 27.4528 9.44981 26.5472C9.79134 25.5241 10.4577 24.2704 11.449 22.7862L12.2237 23.3145C11.5739 24.2956 11.1116 25.1468 10.8367 25.8679C10.5618 26.5891 10.4244 27.3061 10.4244 28.0189C10.4244 28.782 10.7035 29.3732 11.2616 29.7925C11.828 30.2034 12.6235 30.4088 13.6481 30.4088C15.1141 30.4088 16.3053 30.1237 17.2216 29.5535C18.1379 28.9832 18.596 28.2369 18.596 27.3145C18.596 27.1551 18.596 27.0293 18.596 26.9371C18.596 26.8449 18.596 26.7736 18.596 26.7233C18.596 26.3962 18.5668 26.0356 18.5085 25.6415C18.4586 25.2474 18.3211 24.434 18.0962 23.2013C17.738 21.2138 17.3798 19.2222 17.0217 17.2264L16.3969 16.7736C16.3969 15.9518 16.7801 14.6939 17.5464 13L18.1212 13.2767C18.0879 13.3941 18.0712 13.5283 18.0712 13.6792C18.0712 14.0147 18.242 14.2872 18.5835 14.4969C19.0916 14.782 19.5706 15.0545 20.0204 15.3145C19.9288 16.0356 19.8372 16.5514 19.7455 16.8616C19.6539 17.1719 19.4623 17.6373 19.1708 18.2579L18.7959 18.1069C18.7959 18.2327 18.9125 18.9497 19.1458 20.2579C19.3873 21.5577 19.5914 22.6813 19.758 23.6289C19.9913 24.9874 20.1079 25.8134 20.1079 26.1069V28.9245ZM27.055 29.239H25.3057C24.3311 29.239 23.6272 28.8365 23.1941 28.0314C22.711 27.1426 22.4694 25.6457 22.4694 23.5409V19.956C22.4694 19.1426 22.3569 18.5094 22.132 18.0566C22.0237 17.8386 21.7738 17.5241 21.3823 17.1132L22.7318 13.9686C23.2149 14.6394 23.5523 15.3019 23.7439 15.956C23.9688 16.7191 24.0812 17.6918 24.0812 18.8742V21.3522C24.0812 23.1048 24.1978 24.3208 24.4311 25C24.6143 25.5451 24.9059 25.8176 25.3057 25.8176H27.055V29.239ZM33.0025 29.239H25.1808V25.8176H31.753C31.6614 25.2474 31.4948 24.7652 31.2532 24.3711C31.1283 24.153 30.8367 23.7757 30.3786 23.239L31.3782 20.2453C32.0029 20.9581 32.4277 21.7044 32.6526 22.4843C32.8859 23.2642 33.0025 24.4214 33.0025 25.956V29.239ZM27.8047 31.4528L26.5052 33.8931L24.656 32.9623L23.6064 35L21.3324 33.717L22.7068 31.1509L24.481 32.1572L25.4806 30.1698L27.8047 31.4528ZM39 29.5283C39 30.0398 38.7085 30.7191 38.1254 31.566C37.5423 32.4046 36.8592 33.1342 36.0762 33.7547C35.2099 34.4423 34.4686 34.7862 33.8521 34.7862C33.1191 34.7862 32.3319 34.5765 31.4906 34.1572C30.7576 33.7966 29.6122 33.0755 28.0546 31.9937L28.5793 31.2138C29.329 31.717 29.9329 32.0566 30.3911 32.2327C30.8492 32.4088 31.3449 32.4969 31.878 32.4969C32.4527 32.4969 33.0275 32.3333 33.6022 32.0063C34.177 31.6792 34.96 31.0713 35.9513 30.1824C37.334 28.9413 38.0254 27.9853 38.0254 27.3145C38.0254 26.979 37.8921 26.5388 37.6256 25.9937C37.3257 25.3732 36.9592 24.8574 36.526 24.4465L37.2257 21.0503C37.7922 21.6373 38.2295 22.3124 38.5377 23.0755C38.8459 23.8386 39 24.7065 39 25.6792V29.5283Z" fill="white"/>
</svg>
