<svg width="48" height="48" viewBox="0 0 48 48" fill="none" xmlns="http://www.w3.org/2000/svg">
<path d="M17.4 25.168L15.168 27.808V32.752H12V16H15.168V24.256H15.288L17.664 21.112L21.816 16H25.464L19.632 22.984L25.944 32.752H22.176L17.4 25.168Z" fill="white"/>
<path d="M27.8393 32.752V20.224H30.9112V22.816H31.0312C31.1112 22.48 31.2313 22.16 31.3913 21.856C31.5673 21.536 31.7913 21.256 32.0632 21.016C32.3353 20.776 32.6553 20.584 33.0233 20.44C33.4072 20.296 33.8472 20.224 34.3433 20.224H35.0152V23.128H34.0553C33.0153 23.128 32.2312 23.28 31.7032 23.584C31.1752 23.888 30.9112 24.384 30.9112 25.072V32.752H27.8393Z" fill="white"/>
</svg>
