<svg width="48" height="48" viewBox="0 0 48 48" fill="none" xmlns="http://www.w3.org/2000/svg">
<path d="M14.24 32.328C12.8 32.328 11.576 32.072 10.568 31.56C9.576 31.048 8.72 30.376 8 29.544L10.136 27.48C10.712 28.152 11.352 28.664 12.056 29.016C12.776 29.368 13.568 29.544 14.432 29.544C15.408 29.544 16.144 29.336 16.64 28.92C17.136 28.488 17.384 27.912 17.384 27.192C17.384 26.632 17.224 26.176 16.904 25.824C16.584 25.472 15.984 25.216 15.104 25.056L13.52 24.816C10.176 24.288 8.504 22.664 8.504 19.944C8.504 19.192 8.64 18.512 8.912 17.904C9.2 17.296 9.608 16.776 10.136 16.344C10.664 15.912 11.296 15.584 12.032 15.36C12.784 15.12 13.632 15 14.576 15C15.84 15 16.944 15.208 17.888 15.624C18.832 16.04 19.64 16.656 20.312 17.472L18.152 19.512C17.736 19 17.232 18.584 16.64 18.264C16.048 17.944 15.304 17.784 14.408 17.784C13.496 17.784 12.808 17.96 12.344 18.312C11.896 18.648 11.672 19.128 11.672 19.752C11.672 20.392 11.856 20.864 12.224 21.168C12.592 21.472 13.184 21.696 14 21.84L15.56 22.128C17.256 22.432 18.504 22.976 19.304 23.76C20.12 24.528 20.528 25.608 20.528 27C20.528 27.8 20.384 28.528 20.096 29.184C19.824 29.824 19.416 30.384 18.872 30.864C18.344 31.328 17.688 31.688 16.904 31.944C16.136 32.2 15.248 32.328 14.24 32.328Z" fill="white"/>
<path d="M36.3519 20.016H36.2559L34.9599 22.68L31.5279 29.016L28.0959 22.68L26.7999 20.016H26.7039V32.04H23.7039V15.288H27.2799L31.5759 23.472H31.6719L35.9199 15.288H39.3519V32.04H36.3519V20.016Z" fill="white"/>
</svg>
