<svg width="28" height="49" viewBox="0 0 28 49" fill="none" xmlns="http://www.w3.org/2000/svg">
<path d="M0 22.7608L10.0905 24.6332L12.3198 35.2828L14.6077 24.6332L24.6982 22.7608L14.6077 20.3032L12.3198 10.2974L10.0318 20.3032L0 22.7608Z" fill="#56E5A1"/>
<path d="M23.8159 4C27.5705 4 27.5705 9.85138 23.8159 9.85138C20.0614 9.85138 20.0614 4 23.8159 4Z" fill="white"/>
<path d="M0.5 14C1.16667 14 1.16667 15 0.5 15C-0.166667 15 -0.166667 14 0.5 14Z" fill="white"/>
<path d="M26.5 35C28.5 35 28.5 38 26.5 38C24.5 38 24.5 35 26.5 35Z" fill="white" fill-opacity="0.4"/>
<path d="M2.5 33C5.83333 33 5.83333 38 2.5 38C-0.833333 38 -0.833333 33 2.5 33Z" fill="white" fill-opacity="0.4"/>
</svg>
