<svg width="57" height="48" viewBox="0 0 57 48" fill="none" xmlns="http://www.w3.org/2000/svg">
<path d="M29.1807 27.0549H45.7466C46.0997 27.0549 46.2665 27.0549 46.292 26.5965C46.4273 24.9279 46.4273 23.2496 46.292 21.579C46.292 21.2546 46.1291 21.1206 45.774 21.1206H12.805C12.397 21.1206 12.2871 21.2546 12.2871 21.6334V26.4352C12.2871 27.0549 12.2871 27.0549 12.9404 27.0549H29.1807ZM44.4419 15.5088C44.489 15.3864 44.489 15.2524 44.4419 15.1319C44.1653 14.5356 43.8377 13.9664 43.4571 13.4323C42.8842 12.5193 42.2093 11.6782 41.4403 10.9226C41.0774 10.4661 40.6575 10.0562 40.1867 9.70853C37.8285 7.72137 35.025 6.31501 32.0116 5.60795C30.4912 5.26995 28.9374 5.10873 27.3797 5.12233H12.7481C12.3401 5.12233 12.2851 5.28355 12.2851 5.63514V15.2116C12.2851 15.6156 12.2851 15.7244 12.8031 15.7244H44.2458C44.2458 15.7244 44.5185 15.67 44.5734 15.5088H44.44H44.4419ZM44.4419 32.6667C43.9789 32.6162 43.512 32.6162 43.049 32.6667H12.8325C12.4244 32.6667 12.2871 32.6667 12.2871 33.2067V42.5695C12.2871 43.0007 12.2871 43.1095 12.8325 43.1095H26.7833C27.4503 43.16 28.1173 43.1134 28.7706 42.9755C30.7953 42.8317 32.7865 42.3966 34.6856 41.6798C35.3762 41.4429 36.0432 41.134 36.673 40.763H36.8633C40.1337 39.0789 42.7901 36.4332 44.4655 33.1854C44.4655 33.1854 44.6558 32.7774 44.4419 32.6706V32.6667ZM6.81157 47.9638V47.8025V41.5167V39.3858V33.0455C6.81157 32.6939 6.81157 32.6415 6.37603 32.6415H0.462998C0.135368 32.6415 0 32.6415 0 32.2102V27.084H6.3211C6.67424 27.084 6.81157 27.084 6.81157 26.6256V21.5538C6.81157 21.2294 6.81157 21.1497 6.37603 21.1497H0.462998C0.135368 21.1497 0 21.1497 0 20.7185V15.9711C0 15.6739 2.33872e-07 15.5942 0.435532 15.5942H6.29364C6.7017 15.5942 6.81157 15.5942 6.81157 15.0814V0.540011C6.81157 0.10878 6.81157 0 7.35696 0H27.7917C29.2748 0.0582745 30.7482 0.2195 32.2058 0.48562C35.2094 1.03534 38.0953 2.09788 40.734 3.61496C42.484 4.63476 44.0947 5.8663 45.5288 7.28431C46.6078 8.39347 47.5809 9.59392 48.4441 10.8721C49.3015 12.1677 50.0136 13.5527 50.5727 14.9998C50.6414 15.3767 51.0063 15.6312 51.3869 15.5671H56.2641C56.8899 15.5671 56.8899 15.5671 56.9174 16.1615V20.5864C56.9174 21.0177 56.7546 21.1264 56.3171 21.1264H52.5562C52.1756 21.1264 52.0657 21.1264 52.0932 21.6121C52.2423 23.2554 52.2423 24.9046 52.0932 26.5479C52.0932 27.0063 52.0932 27.0607 52.6131 27.0607H56.9154C57.1057 27.3035 56.9154 27.5463 56.9154 27.7911C56.9429 28.1038 56.9429 28.4205 56.9154 28.7332V31.9985C56.9154 32.4569 56.7801 32.5929 56.37 32.5929H51.2202C50.8611 32.5249 50.5119 32.7522 50.4295 33.1057C49.2034 36.2623 47.2415 39.0924 44.7068 41.3613C43.7808 42.1868 42.8077 42.9638 41.7915 43.6806C40.7007 44.3022 39.6393 44.949 38.5211 45.4618C36.4631 46.3787 34.305 47.0547 32.0901 47.484C29.987 47.8569 27.8544 48.0259 25.7141 47.9968H6.80372V47.9696L6.81157 47.9638Z" fill="#FEFEFD"/>
</svg>
