<svg width="58" height="50" viewBox="0 0 58 50" fill="none" xmlns="http://www.w3.org/2000/svg">
<path d="M43.9165 15.2819C42.8564 14.6884 41.4935 14.6884 40.282 15.2819L31.8016 20.178L26.047 23.2938L17.718 28.1899C16.658 28.7834 15.295 28.7834 14.0836 28.1899L7.5718 24.3323C6.51175 23.7389 5.75457 22.5519 5.75457 21.2166V13.7982C5.75457 12.6113 6.36031 11.4243 7.5718 10.6825L14.0836 6.97329C15.1436 6.37982 16.5065 6.37982 17.718 6.97329L24.2298 10.8309C25.2898 11.4243 26.047 12.6113 26.047 13.9466V18.8427L31.8016 15.5786V10.5341C31.8016 9.34718 31.1958 8.16024 29.9843 7.4184L17.8695 0.445104C16.8094 -0.148368 15.4465 -0.148368 14.235 0.445104L1.81723 7.56677C0.605744 8.16024 0 9.34718 0 10.5341V24.4807C0 25.6677 0.605744 26.8546 1.81723 27.5964L14.0836 34.5697C15.1436 35.1632 16.5065 35.1632 17.718 34.5697L26.047 29.822L31.8016 26.5579L40.1305 21.8101C41.1906 21.2166 42.5535 21.2166 43.765 21.8101L50.2768 25.5193C51.3368 26.1128 52.094 27.2997 52.094 28.635V36.0534C52.094 37.2404 51.4883 38.4273 50.2768 39.1691L43.9165 42.8783C42.8564 43.4718 41.4935 43.4718 40.282 42.8783L33.7702 39.1691C32.7102 38.5757 31.953 37.3887 31.953 36.0534V31.3056L26.1984 34.5697V39.4659C26.1984 40.6528 26.8042 41.8398 28.0157 42.5816L40.282 49.5549C41.342 50.1484 42.705 50.1484 43.9165 49.5549L56.1828 42.5816C57.2428 41.9881 58 40.8012 58 39.4659V25.3709C58 24.184 57.3943 22.997 56.1828 22.2552L43.9165 15.2819Z" fill="white"/>
</svg>
