<svg width="59" height="52" viewBox="0 0 59 52" fill="none" xmlns="http://www.w3.org/2000/svg">
<path d="M58.6962 40.9983L48.9564 51.2918C48.7448 51.5154 48.4885 51.6937 48.2039 51.8155C47.9192 51.9374 47.6121 52.0002 47.3018 52H1.13071C0.910405 52 0.694897 51.9365 0.510672 51.8175C0.326445 51.6985 0.181521 51.529 0.0937084 51.3298C0.0058955 51.1308 -0.0209819 50.9107 0.0163787 50.6968C0.0537393 50.4828 0.15371 50.2842 0.304009 50.1255L10.0511 39.832C10.2623 39.609 10.5176 39.4311 10.8013 39.3093C11.0851 39.1874 11.3912 39.1243 11.7008 39.1238H57.8693C58.0896 39.1238 58.3051 39.1873 58.4894 39.3063C58.6735 39.4253 58.8183 39.5949 58.9065 39.7939C58.9942 39.9931 59.021 40.2131 58.9836 40.427C58.9463 40.641 58.8464 40.8396 58.6962 40.9983ZM48.9564 20.2701C48.7448 20.0465 48.4885 19.8682 48.2039 19.7463C47.9192 19.6246 47.6121 19.5618 47.3018 19.5619H1.13071C0.910405 19.5619 0.694897 19.6253 0.510672 19.7444C0.326445 19.8635 0.181521 20.0329 0.0937084 20.232C0.0058955 20.4312 -0.0209819 20.6512 0.0163787 20.8652C0.0537393 21.0791 0.15371 21.2776 0.304009 21.4364L10.0511 31.7299C10.2623 31.9529 10.5176 32.1308 10.8013 32.2526C11.0851 32.3744 11.3912 32.4376 11.7008 32.4381H57.8693C58.0896 32.4381 58.3051 32.3747 58.4894 32.2556C58.6735 32.1365 58.8183 31.9671 58.9065 31.768C58.9942 31.5688 59.021 31.3488 58.9836 31.1348C58.9463 30.9209 58.8464 30.7224 58.6962 30.5636L48.9564 20.2701ZM1.13071 12.8762H47.3018C47.6121 12.8763 47.9192 12.8136 48.2039 12.6917C48.4885 12.5699 48.7448 12.3916 48.9564 12.168L58.6962 1.87448C58.8464 1.71575 58.9463 1.51721 58.9836 1.30325C59.021 1.08929 58.9942 0.869245 58.9065 0.670138C58.8183 0.471031 58.6735 0.301539 58.4894 0.182486C58.3051 0.0634335 58.0896 7.33165e-06 57.8693 0H11.7008C11.3912 0.000519053 11.0851 0.0636403 10.8013 0.185456C10.5176 0.307272 10.2623 0.485188 10.0511 0.708193L0.306521 11.0017C0.156368 11.1603 0.0564413 11.3586 0.018996 11.5723C-0.0184494 11.786 0.00821467 12.0059 0.0957179 12.2049C0.183221 12.4039 0.32776 12.5734 0.511608 12.6927C0.695458 12.8119 0.910621 12.8757 1.13071 12.8762Z" fill="url(#paint0_linear_25148_19158)"/>
<defs>
<linearGradient id="paint0_linear_25148_19158" x1="4.98029" y1="53.2393" x2="52.6056" y2="-1.24087" gradientUnits="userSpaceOnUse">
<stop offset="0.08" stop-color="#9945FF"/>
<stop offset="0.3" stop-color="#8752F3"/>
<stop offset="0.5" stop-color="#5497D5"/>
<stop offset="0.6" stop-color="#43B4CA"/>
<stop offset="0.72" stop-color="#28E0B9"/>
<stop offset="0.97" stop-color="#19FB9B"/>
</linearGradient>
</defs>
</svg>
