<svg width="48" height="48" viewBox="0 0 48 48" fill="none" xmlns="http://www.w3.org/2000/svg">
<path fill-rule="evenodd" clip-rule="evenodd" d="M7.65957 0.000212011L40.5958 0C41.7611 0 42.9255 0.171137 44.1423 0.738446C45.6009 1.41838 46.3744 2.49008 46.9163 3.28263C46.9585 3.34429 46.9979 3.40784 47.0344 3.47285C47.6716 4.60705 48 5.83164 48 7.14893C48 8.40058 47.7022 9.76421 47.0344 10.9527C47.0281 10.9643 47.0216 10.9754 47.0151 10.9867L26.2065 46.7314C25.7476 47.5197 24.9031 48.0031 23.991 48C23.0789 47.9968 22.2376 47.5071 21.7844 46.7156L1.35792 11.0473C1.35205 11.0377 1.34618 11.028 1.3403 11.0182C0.872823 10.2478 0.149898 9.0566 0.0234333 7.51931C-0.092755 6.10554 0.224979 4.68905 0.935322 3.4609C1.64566 2.23253 2.71506 1.2506 4.00131 0.649521C5.38047 0.00503345 6.77809 0.000212011 7.65957 0.000212011ZM21.4468 5.10641H7.65957C6.75376 5.10641 6.40603 5.1622 6.16296 5.27587C5.82677 5.43274 5.54448 5.69092 5.35572 6.01725C5.16697 6.34379 5.08161 6.72214 5.11265 7.1009C5.13048 7.31797 5.21898 7.56628 5.74099 8.42721C5.7519 8.44525 5.76259 8.46349 5.77308 8.48174L21.4468 35.8508V5.10641ZM26.5532 5.10641V35.986L42.5899 8.43833C42.7709 8.10948 42.8936 7.63424 42.8936 7.14893C42.8936 6.75528 42.812 6.41342 42.6295 6.06108C42.4381 5.78571 42.3215 5.63995 42.2239 5.54012C42.1402 5.45477 42.0759 5.40904 41.9848 5.36668C41.6057 5.18988 41.2177 5.10641 40.5958 5.10641H26.5532Z" fill="white"/>
</svg>
