<svg width="63" height="63" viewBox="0 0 63 63" fill="none" xmlns="http://www.w3.org/2000/svg">
<path d="M5.25 23.625V18.375C5.25 10.5 10.5 5.25 18.375 5.25H44.625C52.5 5.25 57.75 10.5 57.75 18.375V23.625" stroke="white" stroke-width="2" stroke-miterlimit="10" stroke-linecap="round" stroke-linejoin="round"/>
<path d="M5.25 39.375V44.625C5.25 52.5 10.5 57.75 18.375 57.75H44.625C52.5 57.75 57.75 52.5 57.75 44.625V39.375" stroke="white" stroke-width="2" stroke-miterlimit="10" stroke-linecap="round" stroke-linejoin="round"/>
<path d="M17.5879 24.3075L31.5004 32.3663L45.3079 24.3601" stroke="white" stroke-width="2" stroke-linecap="round" stroke-linejoin="round"/>
<path d="M31.5 46.6463V32.34" stroke="white" stroke-width="2" stroke-linecap="round" stroke-linejoin="round"/>
<path d="M28.2449 16.5112L19.8449 21.1838C17.9549 22.2338 16.3799 24.885 16.3799 27.0638V35.9626C16.3799 38.1413 17.9286 40.7925 19.8449 41.8425L28.2449 46.515C30.0299 47.5125 32.9699 47.5125 34.7811 46.515L43.1811 41.8425C45.0711 40.7925 46.6461 38.1413 46.6461 35.9626V27.0638C46.6461 24.885 45.0974 22.2338 43.1811 21.1838L34.7811 16.5112C32.9699 15.4875 30.0299 15.4875 28.2449 16.5112Z" stroke="white" stroke-width="2" stroke-linecap="round" stroke-linejoin="round"/>
</svg>
