<svg width="37" height="39" viewBox="0 0 37 39" fill="none" xmlns="http://www.w3.org/2000/svg">
<path d="M2.22731 36.7727C3.86373 38.4091 6.50565 38.4091 8.14207 36.7727L33.7727 11.1421C35.4091 9.50565 35.4091 6.86373 33.7727 5.22731C32.1363 3.5909 29.4943 3.5909 27.8579 5.22731L2.22731 30.8579C0.590896 32.4943 0.590896 35.1363 2.22731 36.7727Z" stroke="black" stroke-width="1.80523" stroke-linecap="round" stroke-linejoin="round"/>
<path d="M3.58559 12.7584C3.85616 12.8378 4.14384 12.8378 4.41441 12.7584V12.7584C5.53169 12.4307 6.5693 13.4683 6.24156 14.5856V14.5856C6.16219 14.8562 6.16219 15.1438 6.24156 15.4144V15.4144C6.5693 16.5317 5.53169 17.5693 4.41441 17.2416V17.2416C4.14384 17.1622 3.85616 17.1622 3.58559 17.2416V17.2416C2.46831 17.5693 1.4307 16.5317 1.75844 15.4144V15.4144C1.83781 15.1438 1.83781 14.8562 1.75844 14.5856V14.5856C1.4307 13.4683 2.46831 12.4307 3.58559 12.7584V12.7584Z" stroke="black" stroke-width="1.20349" stroke-linecap="round" stroke-linejoin="round"/>
<path d="M31 14L25 8" stroke="black" stroke-width="1.80523" stroke-linecap="round" stroke-linejoin="round"/>
<path d="M11.5856 0.758441C11.8562 0.837808 12.1438 0.837808 12.4144 0.758441V0.758441C13.5317 0.430704 14.5693 1.46831 14.2416 2.58559V2.58559C14.1622 2.85616 14.1622 3.14384 14.2416 3.41441V3.41441C14.5693 4.53169 13.5317 5.5693 12.4144 5.24156V5.24156C12.1438 5.16219 11.8562 5.16219 11.5856 5.24156V5.24156C10.4683 5.5693 9.4307 4.53169 9.75844 3.41441V3.41441C9.83781 3.14384 9.83781 2.85616 9.75844 2.58559V2.58559C9.4307 1.46831 10.4683 0.430704 11.5856 0.758441V0.758441Z" stroke="black" stroke-width="1.20349" stroke-linecap="round" stroke-linejoin="round"/>
<path d="M33.5856 22.7584C33.8562 22.8378 34.1438 22.8378 34.4144 22.7584V22.7584C35.5317 22.4307 36.5693 23.4683 36.2416 24.5856V24.5856C36.1622 24.8562 36.1622 25.1438 36.2416 25.4144V25.4144C36.5693 26.5317 35.5317 27.5693 34.4144 27.2416V27.2416C34.1438 27.1622 33.8562 27.1622 33.5856 27.2416V27.2416C32.4683 27.5693 31.4307 26.5317 31.7584 25.4144V25.4144C31.8378 25.1438 31.8378 24.8562 31.7584 24.5856V24.5856C31.4307 23.4683 32.4683 22.4307 33.5856 22.7584V22.7584Z" stroke="black" stroke-width="1.20349" stroke-linecap="round" stroke-linejoin="round"/>
</svg>
