<svg width="63" height="63" viewBox="0 0 63 63" fill="none" xmlns="http://www.w3.org/2000/svg">
<path d="M5.25 33.1013H49.875" stroke="white" stroke-width="2" stroke-miterlimit="10" stroke-linecap="round" stroke-linejoin="round"/>
<path d="M49.875 26.985V45.7538C49.7963 53.235 47.7487 55.125 39.9524 55.125H15.1726C7.24508 55.125 5.25 53.1563 5.25 45.3338V26.985C5.25 19.8975 6.90375 17.6138 13.125 17.2463C13.755 17.22 14.4376 17.1938 15.1726 17.1938H39.9524C47.8799 17.1938 49.875 19.1625 49.875 26.985Z" stroke="white" stroke-width="2" stroke-linecap="round" stroke-linejoin="round"/>
<path d="M57.75 17.6662V36.015C57.75 43.1025 56.0962 45.3863 49.875 45.7538V26.985C49.875 19.1625 47.8799 17.1937 39.9524 17.1937H15.1726C14.4376 17.1937 13.755 17.22 13.125 17.2462C13.2037 9.765 15.2513 7.875 23.0476 7.875H47.8274C55.7549 7.875 57.75 9.84375 57.75 17.6662Z" stroke="white" stroke-width="2" stroke-linecap="round" stroke-linejoin="round"/>
<path d="M13.7812 46.7513H18.2962" stroke="white" stroke-width="2" stroke-miterlimit="10" stroke-linecap="round" stroke-linejoin="round"/>
<path d="M23.9141 46.7513H32.9441" stroke="white" stroke-width="2" stroke-miterlimit="10" stroke-linecap="round" stroke-linejoin="round"/>
</svg>
