<svg xmlns:xlink="http://www.w3.org/1999/xlink" xmlns="http://www.w3.org/2000/svg" width="24" height="24" fill="none" viewBox="0 0 24 24" class="css-cxrvnw"><path fill="#157EFB" fill-rule="evenodd" clip-rule="evenodd" d="M14.825 13.021a.6.6 0 01-.513.072.86.86 0 01-.366-.198 1.608 1.608 0 01-.282-.352l-4.341-6.97c-.125-.202-.197-.369-.217-.503a.95.95 0 01.016-.372.891.891 0 01.17-.323c.084-.105.23-.217.44-.333L16.97.207c.157-.087.298-.146.424-.18a.764.764 0 01.41.001.602.602 0 01.414.329.75.75 0 01.042.53l-.816 3.045.281.076c1.208.323 2.23.79 3.065 1.398.84.61 1.485 1.36 1.933 2.25.449.885.693 1.91.732 3.075.045 1.167-.125 2.466-.508 3.898-.062.229-.166.39-.314.485a.543.543 0 01-.459.086.736.736 0 01-.34-.2c-.097-.093-.166-.243-.206-.448-.162-.892-.465-1.648-.907-2.269-.44-.625-1.034-1.147-1.781-1.565-.746-.423-1.655-.778-2.727-1.065l-.281-.076-.808 3.014a.72.72 0 01-.3.43zm-5.647-2.047c.15-.1.32-.124.514-.072.14.038.262.104.365.198.103.095.197.212.282.352l4.344 6.974c.124.2.197.368.217.502a.951.951 0 01-.016.372.894.894 0 01-.17.323c-.085.106-.232.217-.442.334l-7.24 3.836a1.911 1.911 0 01-.424.18.765.765 0 01-.41-.001.603.603 0 01-.414-.33.75.75 0 01-.042-.53l.816-3.046-.281-.075c-1.208-.324-2.23-.79-3.066-1.4a6.197 6.197 0 01-1.934-2.25c-.449-.885-.693-1.91-.732-3.076-.045-1.167.125-2.467.509-3.899.06-.23.166-.39.314-.485a.54.54 0 01.458-.086c.13.034.244.101.34.2.098.093.167.242.206.448.163.892.466 1.648.908 2.27.44.625 1.034 1.147 1.782 1.565.746.423 1.655.778 2.728 1.066l.281.075.808-3.015a.72.72 0 01.3-.43z"></path></svg>